<svg width="94" height="94" viewBox="0 0 94 94" fill="none" xmlns="http://www.w3.org/2000/svg">
<path d="M12.6054 27.521C13.24 27.521 13.7544 27.0066 13.7544 26.3721C13.7544 25.7376 13.24 25.2233 12.6054 25.2233C11.9708 25.2233 11.4563 25.7376 11.4563 26.3721C11.4563 27.0066 11.9708 27.521 12.6054 27.521Z" fill="#060606"/>
<path d="M14.9035 29.8187C15.5381 29.8187 16.0525 29.3043 16.0525 28.6698C16.0525 28.0353 15.5381 27.521 14.9035 27.521C14.2689 27.521 13.7544 28.0353 13.7544 28.6698C13.7544 29.3043 14.2689 29.8187 14.9035 29.8187Z" fill="#060606"/>
<path d="M8.02627 59.6031C8.66083 59.6031 9.17533 60.1175 9.17533 60.7519C9.17533 61.3864 9.68984 61.9008 10.3244 61.9008H14.9035C15.538 61.9008 16.0525 61.3864 16.0525 60.7519C16.0525 60.1175 15.538 59.6031 14.9035 59.6031C14.2689 59.6031 13.7544 59.0887 13.7544 58.4542C13.7544 57.8198 13.2399 57.3054 12.6054 57.3054C11.9708 57.3054 11.4563 56.791 11.4563 56.1565C11.4563 55.5221 10.9418 55.0077 10.3072 55.0077C9.67269 55.0077 9.15818 55.5221 9.15818 56.1565C9.15818 56.791 8.64368 57.3054 8.00912 57.3054C7.37457 57.3054 6.86006 57.8198 6.86006 58.4542C6.86006 59.0887 7.37457 59.6031 8.00912 59.6031H8.02627Z" fill="#060606"/>
<path d="M6.87721 30.9504C6.87721 31.5848 7.39172 32.0992 8.02627 32.0992C8.66083 32.0992 9.17533 31.5848 9.17533 30.9504C9.17533 30.3159 9.68984 29.8015 10.3244 29.8015C10.9589 29.8015 11.4735 29.2871 11.4735 28.6527C11.4735 28.0182 10.9589 27.5038 10.3244 27.5038H8.02627C7.39172 27.5038 6.87721 28.0182 6.87721 28.6527V30.9504Z" fill="#060606"/>
<path d="M8.02627 20.645C8.66088 20.645 9.17533 20.1307 9.17533 19.4962C9.17533 18.8617 8.66088 18.3473 8.02627 18.3473C7.39166 18.3473 6.87721 18.8617 6.87721 19.4962C6.87721 20.1307 7.39166 20.645 8.02627 20.645Z" fill="#060606"/>
<path d="M8.02627 25.2233C8.66088 25.2233 9.17533 24.7089 9.17533 24.0744C9.17533 23.4399 8.66088 22.9256 8.02627 22.9256C7.39166 22.9256 6.87721 23.4399 6.87721 24.0744C6.87721 24.7089 7.39166 25.2233 8.02627 25.2233Z" fill="#060606"/>
<path d="M12.6054 20.645H10.3072C9.67269 20.645 9.15818 21.1594 9.15818 21.7939C9.15818 22.4283 9.67269 22.9427 10.3072 22.9427H12.6054C13.2399 22.9427 13.7544 22.4283 13.7544 21.7939C13.7544 21.1594 13.2399 20.645 12.6054 20.645Z" fill="#060606"/>
<path d="M25.2107 49.2977C25.2107 49.9321 25.7252 50.4466 26.3598 50.4466H28.6579C29.2925 50.4466 29.807 49.9321 29.807 49.2977C29.807 48.6633 29.2925 48.1489 28.6579 48.1489C28.0233 48.1489 27.5088 47.6344 27.5088 47C27.5088 46.3656 26.9943 45.8512 26.3598 45.8512C25.7252 45.8512 25.2107 45.3367 25.2107 44.7023C25.2107 44.0679 24.6962 43.5534 24.0617 43.5534C23.4271 43.5534 22.9126 44.0679 22.9126 44.7023V47C22.9126 47.6344 23.4271 48.1489 24.0617 48.1489C24.6962 48.1489 25.2107 48.6633 25.2107 49.2977Z" fill="#060606"/>
<path d="M14.9035 45.8512C14.2689 45.8512 13.7544 46.3656 13.7544 47C13.7544 47.6344 14.2689 48.1489 14.9035 48.1489H19.4826C20.1171 48.1489 20.6316 47.6344 20.6316 47V44.7023C20.6316 44.0679 20.1171 43.5534 19.4826 43.5534H17.1845C16.5499 43.5534 16.0354 44.0679 16.0354 44.7023C16.0354 45.3367 15.5209 45.8512 14.8863 45.8512H14.9035Z" fill="#060606"/>
<path d="M30.9389 43.5706H28.6408C28.0062 43.5706 27.4917 44.085 27.4917 44.7194C27.4917 45.3539 28.0062 45.8683 28.6408 45.8683H30.9389C31.5734 45.8683 32.0879 45.3539 32.0879 44.7194C32.0879 44.085 31.5734 43.5706 30.9389 43.5706Z" fill="#060606"/>
<path d="M14.9035 41.2729H12.6054C11.9708 41.2729 11.4563 41.7873 11.4563 42.4217C11.4563 43.0562 11.9708 43.5706 12.6054 43.5706H14.9035C15.538 43.5706 16.0525 43.0562 16.0525 42.4217C16.0525 41.7873 15.538 41.2729 14.9035 41.2729Z" fill="#060606"/>
<path d="M32.0879 37.8263C32.0879 37.1919 31.5734 36.6775 30.9389 36.6775H28.6408C28.0062 36.6775 27.4917 37.1919 27.4917 37.8263C27.4917 38.4608 28.0062 38.9752 28.6408 38.9752C29.2753 38.9752 29.7898 39.4896 29.7898 40.124C29.7898 40.7585 30.3043 41.2729 30.9389 41.2729C31.5734 41.2729 32.0879 40.7585 32.0879 40.124V37.8263Z" fill="#060606"/>
<path d="M73.3512 5.74425C73.3512 6.37869 72.8367 6.89311 72.2021 6.89311C71.5676 6.89311 71.0531 7.40752 71.0531 8.04196C71.0531 8.6764 71.5676 9.19081 72.2021 9.19081C72.8367 9.19081 73.3512 9.70522 73.3512 10.3397C73.3512 10.9741 73.8657 11.4885 74.5003 11.4885C75.1348 11.4885 75.6493 10.9741 75.6493 10.3397V3.44655C75.6493 2.81211 75.1348 2.2977 74.5003 2.2977C73.8657 2.2977 73.3512 2.81211 73.3512 3.44655V5.74425Z" fill="#060606"/>
<path d="M21.7807 25.2233C21.1461 25.2233 20.6316 24.7089 20.6316 24.0744C20.6316 23.44 20.1171 22.9256 19.4826 22.9256C18.848 22.9256 18.3335 23.44 18.3335 24.0744C18.3335 24.7089 17.819 25.2233 17.1845 25.2233C16.5499 25.2233 16.0354 25.7377 16.0354 26.3721C16.0354 27.0066 16.5499 27.521 17.1845 27.521H19.4826C20.1171 27.521 20.6316 28.0354 20.6316 28.6698V30.9675C20.6316 31.602 21.1461 32.1164 21.7807 32.1164C22.4153 32.1164 22.9298 32.6308 22.9298 33.2652C22.9298 33.8997 22.4153 34.4141 21.7807 34.4141C21.1461 34.4141 20.6316 33.8997 20.6316 33.2652C20.6316 32.6308 20.1171 32.1164 19.4826 32.1164C18.848 32.1164 18.3335 31.602 18.3335 30.9675C18.3335 30.3331 17.819 29.8187 17.1845 29.8187C16.5499 29.8187 16.0354 30.3331 16.0354 30.9675C16.0354 31.602 15.5209 32.1164 14.8863 32.1164C14.2518 32.1164 13.7373 31.602 13.7373 30.9675C13.7373 30.3331 13.2228 29.8187 12.5882 29.8187C11.9537 29.8187 11.4392 30.3331 11.4392 30.9675C11.4392 31.602 10.9246 32.1164 10.2901 32.1164C9.65554 32.1164 9.14103 32.6308 9.14103 33.2652V35.5629C9.14103 36.1974 9.65554 36.7118 10.2901 36.7118C10.9246 36.7118 11.4392 36.1974 11.4392 35.5629C11.4392 34.9285 11.9537 34.4141 12.5882 34.4141H14.8863C15.5209 34.4141 16.0354 34.9285 16.0354 35.5629C16.0354 36.1974 15.5209 36.7118 14.8863 36.7118C14.2518 36.7118 13.7373 37.2262 13.7373 37.8606C13.7373 38.4951 14.2518 39.0095 14.8863 39.0095H17.1845C17.819 39.0095 18.3335 38.4951 18.3335 37.8606C18.3335 37.2262 18.848 36.7118 19.4826 36.7118C20.1171 36.7118 20.6316 37.2262 20.6316 37.8606C20.6316 38.4951 20.1171 39.0095 19.4826 39.0095C18.848 39.0095 18.3335 39.5239 18.3335 40.1583C18.3335 40.7928 18.848 41.3072 19.4826 41.3072H26.3598C26.9943 41.3072 27.5088 40.7928 27.5088 40.1583C27.5088 39.5239 26.9943 39.0095 26.3598 39.0095H24.0617C23.4271 39.0095 22.9126 38.4951 22.9126 37.8606C22.9126 37.2262 23.4271 36.7118 24.0617 36.7118C24.6962 36.7118 25.2107 36.1974 25.2107 35.5629C25.2107 34.9285 25.7252 34.4141 26.3598 34.4141C26.9943 34.4141 27.5088 33.8997 27.5088 33.2652C27.5088 32.6308 26.9943 32.1164 26.3598 32.1164C25.7252 32.1164 25.2107 31.602 25.2107 30.9675V28.6698C25.2107 28.0354 24.6962 27.521 24.0617 27.521C23.4271 27.521 22.9126 27.0066 22.9126 26.3721C22.9126 25.7377 22.3981 25.2233 21.7635 25.2233H21.7807Z" fill="#060606"/>
<path d="M30.9389 34.3969C31.5735 34.3969 32.0879 33.8826 32.0879 33.2481C32.0879 32.6136 31.5735 32.0992 30.9389 32.0992C30.3043 32.0992 29.7898 32.6136 29.7898 33.2481C29.7898 33.8826 30.3043 34.3969 30.9389 34.3969Z" fill="#060606"/>
<path d="M17.1845 68.7767C17.8191 68.7767 18.3335 68.2624 18.3335 67.6279C18.3335 66.9934 17.8191 66.479 17.1845 66.479C16.5498 66.479 16.0354 66.9934 16.0354 67.6279C16.0354 68.2624 16.5498 68.7767 17.1845 68.7767Z" fill="#060606"/>
<path d="M50.4215 26.3721C50.4215 25.7377 49.9069 25.2233 49.2724 25.2233H46.9743C46.3397 25.2233 45.8252 25.7377 45.8252 26.3721C45.8252 27.0066 46.3397 27.521 46.9743 27.521H49.2724C49.9069 27.521 50.4215 27.0066 50.4215 26.3721Z" fill="#060606"/>
<path d="M52.7196 14.9008C52.7196 14.2663 53.2341 13.7519 53.8686 13.7519C54.5032 13.7519 55.0177 14.2663 55.0177 14.9008C55.0177 15.5352 55.5322 16.0496 56.1668 16.0496C56.8013 16.0496 57.3158 15.5352 57.3158 14.9008V10.3225C57.3158 9.68807 56.8013 9.17366 56.1668 9.17366C55.5322 9.17366 55.0177 9.68807 55.0177 10.3225C55.0177 10.957 54.5032 11.4714 53.8686 11.4714H51.5705C50.936 11.4714 50.4215 11.9858 50.4215 12.6202V14.9179C50.4215 15.5524 49.9069 16.0668 49.2724 16.0668C48.6378 16.0668 48.1233 16.5812 48.1233 17.2156V19.5133C48.1233 20.1478 48.6378 20.6622 49.2724 20.6622C49.9069 20.6622 50.4215 21.1766 50.4215 21.811V24.1087C50.4215 24.7432 50.936 25.2576 51.5705 25.2576C52.2051 25.2576 52.7196 25.772 52.7196 26.4064C52.7196 27.0409 53.2341 27.5553 53.8686 27.5553C54.5032 27.5553 55.0177 28.0697 55.0177 28.7041V31.0018C55.0177 31.6363 55.5322 32.1507 56.1668 32.1507C56.8013 32.1507 57.3158 31.6363 57.3158 31.0018V21.8282C57.3158 21.1937 56.8013 20.6793 56.1668 20.6793C55.5322 20.6793 55.0177 21.1937 55.0177 21.8282C55.0177 22.4626 54.5032 22.977 53.8686 22.977C53.2341 22.977 52.7196 22.4626 52.7196 21.8282V14.9008Z" fill="#060606"/>
<path d="M46.9914 22.9427C47.626 22.9427 48.1405 22.4284 48.1405 21.7939C48.1405 21.1594 47.626 20.645 46.9914 20.645C46.3568 20.645 45.8424 21.1594 45.8424 21.7939C45.8424 22.4284 46.3568 22.9427 46.9914 22.9427Z" fill="#060606"/>
<path d="M44.6933 9.19081H46.9914C47.626 9.19081 48.1405 8.6764 48.1405 8.04196C48.1405 7.40752 47.626 6.89311 46.9914 6.89311H44.6933C44.0587 6.89311 43.5442 7.40752 43.5442 8.04196C43.5442 8.6764 44.0587 9.19081 44.6933 9.19081Z" fill="#060606"/>
<path d="M42.4123 13.7691C41.7778 13.7691 41.2633 14.2835 41.2633 14.9179C41.2633 15.5524 40.7488 16.0668 40.1142 16.0668C39.4797 16.0668 38.9651 15.5524 38.9651 14.9179C38.9651 14.2835 38.4506 13.7691 37.8161 13.7691C37.1815 13.7691 36.667 14.2835 36.667 14.9179C36.667 15.5524 36.1525 16.0668 35.518 16.0668C34.8834 16.0668 34.3689 16.5812 34.3689 17.2156C34.3689 17.8501 34.8834 18.3645 35.518 18.3645H40.0971C40.7316 18.3645 41.2461 18.8789 41.2461 19.5133C41.2461 20.1478 41.7606 20.6622 42.3952 20.6622C43.0297 20.6622 43.5442 20.1478 43.5442 19.5133C43.5442 18.8789 44.0587 18.3645 44.6933 18.3645C45.3279 18.3645 45.8424 17.8501 45.8424 17.2156C45.8424 16.5812 45.3279 16.0668 44.6933 16.0668C44.0587 16.0668 43.5442 15.5524 43.5442 14.9179C43.5442 14.2835 43.0297 13.7691 42.3952 13.7691H42.4123Z" fill="#060606"/>
<path d="M51.5705 32.0992C52.2051 32.0992 52.7196 31.5849 52.7196 30.9504C52.7196 30.3159 52.2051 29.8015 51.5705 29.8015C50.9359 29.8015 50.4215 30.3159 50.4215 30.9504C50.4215 31.5849 50.9359 32.0992 51.5705 32.0992Z" fill="#060606"/>
<path d="M44.6933 29.8187C44.0587 29.8187 43.5442 29.3043 43.5442 28.6698C43.5442 28.0354 43.0297 27.521 42.3952 27.521H40.0971C39.4625 27.521 38.948 28.0354 38.948 28.6698C38.948 29.3043 39.4625 29.8187 40.0971 29.8187C40.7316 29.8187 41.2461 30.3331 41.2461 30.9675C41.2461 31.602 41.7606 32.1164 42.3952 32.1164H46.9743C47.6088 32.1164 48.1233 31.602 48.1233 30.9675C48.1233 30.3331 47.6088 29.8187 46.9743 29.8187H44.6762H44.6933Z" fill="#060606"/>
<path d="M28.6579 57.3054H26.3598C25.7252 57.3054 25.2107 57.8198 25.2107 58.4542C25.2107 59.0887 25.7252 59.6031 26.3598 59.6031H28.6579C29.2925 59.6031 29.807 59.0887 29.807 58.4542C29.807 57.8198 29.2925 57.3054 28.6579 57.3054Z" fill="#060606"/>
<path d="M44.6933 13.7691C45.3279 13.7691 45.8424 14.2835 45.8424 14.9179C45.8424 15.5524 46.3569 16.0668 46.9914 16.0668C47.626 16.0668 48.1405 15.5524 48.1405 14.9179V12.6202C48.1405 11.9858 47.626 11.4714 46.9914 11.4714H44.6933C44.0587 11.4714 43.5442 11.9858 43.5442 12.6202C43.5442 13.2547 44.0587 13.7691 44.6933 13.7691Z" fill="#060606"/>
<path d="M30.9389 61.9008C31.5735 61.9008 32.0879 61.3864 32.0879 60.7519C32.0879 60.1174 31.5735 59.6031 30.9389 59.6031C30.3043 59.6031 29.7898 60.1174 29.7898 60.7519C29.7898 61.3864 30.3043 61.9008 30.9389 61.9008Z" fill="#060606"/>
<path d="M19.4826 71.0573H21.7807C22.4153 71.0573 22.9298 70.5429 22.9298 69.9084V67.6107C22.9298 66.9763 23.4443 66.4619 24.0788 66.4619C24.7134 66.4619 25.2279 66.9763 25.2279 67.6107C25.2279 68.2452 25.7424 68.7596 26.3769 68.7596H28.6751C29.3096 68.7596 29.8241 68.2452 29.8241 67.6107C29.8241 66.9763 29.3096 66.4619 28.6751 66.4619C28.0405 66.4619 27.526 65.9475 27.526 65.313V63.0153C27.526 62.3809 27.0115 61.8665 26.3769 61.8665C25.7424 61.8665 25.2279 62.3809 25.2279 63.0153C25.2279 63.6498 24.7134 64.1642 24.0788 64.1642C23.4443 64.1642 22.9298 63.6498 22.9298 63.0153C22.9298 62.3809 22.4153 61.8665 21.7807 61.8665C21.1461 61.8665 20.6316 61.3521 20.6316 60.7176V58.4199C20.6316 57.7855 20.1171 57.2711 19.4826 57.2711C18.848 57.2711 18.3335 57.7855 18.3335 58.4199V60.7176C18.3335 61.3521 17.819 61.8665 17.1845 61.8665C16.5499 61.8665 16.0354 62.3809 16.0354 63.0153C16.0354 63.6498 16.5499 64.1642 17.1845 64.1642H19.4826C20.1171 64.1642 20.6316 64.6786 20.6316 65.313V67.6107C20.6316 68.2452 20.1171 68.7596 19.4826 68.7596C18.848 68.7596 18.3335 69.274 18.3335 69.9084C18.3335 70.5429 18.848 71.0573 19.4826 71.0573Z" fill="#060606"/>
<path d="M33.237 66.479C33.8716 66.479 34.3861 66.9934 34.3861 67.6279C34.3861 68.2623 34.9006 68.7767 35.5351 68.7767C36.1697 68.7767 36.6842 68.2623 36.6842 67.6279V65.3302C36.6842 64.6957 36.1697 64.1813 35.5351 64.1813C34.9006 64.1813 34.3861 63.6669 34.3861 63.0325C34.3861 62.398 33.8716 61.8836 33.237 61.8836C32.6024 61.8836 32.0879 62.398 32.0879 63.0325V65.3302C32.0879 65.9646 32.6024 66.479 33.237 66.479Z" fill="#060606"/>
<path d="M44.6933 25.2233C45.3279 25.2233 45.8424 24.7089 45.8424 24.0744C45.8424 23.44 45.3279 22.9256 44.6933 22.9256H40.1142C39.4797 22.9256 38.9651 22.4112 38.9651 21.7767C38.9651 21.1423 38.4506 20.6279 37.8161 20.6279H33.237C32.6024 20.6279 32.0879 21.1423 32.0879 21.7767C32.0879 22.4112 32.6024 22.9256 33.237 22.9256C33.8716 22.9256 34.3861 23.44 34.3861 24.0744C34.3861 24.7089 34.9006 25.2233 35.5351 25.2233H44.6933Z" fill="#060606"/>
<path d="M35.5351 29.8187C36.1697 29.8187 36.6842 29.3043 36.6842 28.6698C36.6842 28.0353 36.1697 27.521 35.5351 27.521C34.9005 27.521 34.3861 28.0353 34.3861 28.6698C34.3861 29.3043 34.9005 29.8187 35.5351 29.8187Z" fill="#060606"/>
<path d="M26.3598 20.645C25.7252 20.645 25.2107 21.1594 25.2107 21.7939C25.2107 22.4283 24.6962 22.9427 24.0617 22.9427C23.4271 22.9427 22.9126 23.4571 22.9126 24.0916C22.9126 24.726 23.4271 25.2404 24.0617 25.2404H26.3598C26.9943 25.2404 27.5088 24.726 27.5088 24.0916V21.7939C27.5088 21.1594 26.9943 20.645 26.3598 20.645Z" fill="#060606"/>
<path d="M82.5265 56.1737C82.5265 55.5392 82.012 55.0248 81.3775 55.0248H79.0794C78.4448 55.0248 77.9303 55.5392 77.9303 56.1737C77.9303 56.8081 78.4448 57.3225 79.0794 57.3225C79.7139 57.3225 80.2284 57.8369 80.2284 58.4714C80.2284 59.1058 80.7429 59.6202 81.3775 59.6202C82.012 59.6202 82.5265 59.1058 82.5265 58.4714V56.1737Z" fill="#060606"/>
<path d="M81.3775 48.1489C80.7429 48.1489 80.2284 47.6344 80.2284 47C80.2284 46.3656 79.7139 45.8512 79.0794 45.8512C78.4448 45.8512 77.9303 46.3656 77.9303 47C77.9303 47.6344 77.4158 48.1489 76.7812 48.1489H74.4831C73.8486 48.1489 73.3341 48.6633 73.3341 49.2977C73.3341 49.9321 72.8196 50.4466 72.185 50.4466C71.5504 50.4466 71.0359 49.9321 71.0359 49.2977V47C71.0359 46.3656 71.5504 45.8512 72.185 45.8512C72.8196 45.8512 73.3341 45.3367 73.3341 44.7023C73.3341 44.0679 72.8196 43.5534 72.185 43.5534C71.5504 43.5534 71.0359 43.039 71.0359 42.4046C71.0359 41.7702 70.5214 41.2557 69.8869 41.2557C69.2523 41.2557 68.7378 41.7702 68.7378 42.4046C68.7378 43.039 68.2233 43.5534 67.5888 43.5534C66.9542 43.5534 66.4397 43.039 66.4397 42.4046C66.4397 41.7702 65.9252 41.2557 65.2906 41.2557C64.6561 41.2557 64.1416 41.7702 64.1416 42.4046V51.5783C64.1416 52.2127 64.6561 52.7271 65.2906 52.7271C65.9252 52.7271 66.4397 52.2127 66.4397 51.5783V47C66.4397 46.3656 66.9542 45.8512 67.5888 45.8512C68.2233 45.8512 68.7378 46.3656 68.7378 47V53.876C68.7378 54.5104 69.2523 55.0248 69.8869 55.0248C70.5214 55.0248 71.0359 54.5104 71.0359 53.876C71.0359 53.2415 71.5504 52.7271 72.185 52.7271H79.0622C79.6968 52.7271 80.2113 52.2127 80.2113 51.5783C80.2113 50.9438 80.7258 50.4294 81.3603 50.4294C81.9949 50.4294 82.5094 49.915 82.5094 49.2806C82.5094 48.6461 81.9949 48.1317 81.3603 48.1317L81.3775 48.1489Z" fill="#060606"/>
<path d="M79.0794 68.7767C79.7139 68.7767 80.2284 69.2911 80.2284 69.9256C80.2284 70.56 80.7429 71.0744 81.3775 71.0744C82.012 71.0744 82.5265 70.56 82.5265 69.9256V65.3473C82.5265 64.7129 82.012 64.1985 81.3775 64.1985C80.7429 64.1985 80.2284 64.7129 80.2284 65.3473C80.2284 65.9818 79.7139 66.4962 79.0794 66.4962C78.4448 66.4962 77.9303 67.0106 77.9303 67.645C77.9303 68.2795 78.4448 68.7939 79.0794 68.7939V68.7767Z" fill="#060606"/>
<path d="M74.5003 57.3225C75.1349 57.3225 75.6493 56.8082 75.6493 56.1737C75.6493 55.5392 75.1349 55.0248 74.5003 55.0248C73.8657 55.0248 73.3512 55.5392 73.3512 56.1737C73.3512 56.8082 73.8657 57.3225 74.5003 57.3225Z" fill="#060606"/>
<path d="M14.9035 57.3225C15.5381 57.3225 16.0525 56.8082 16.0525 56.1737C16.0525 55.5392 15.5381 55.0248 14.9035 55.0248C14.2689 55.0248 13.7544 55.5392 13.7544 56.1737C13.7544 56.8082 14.2689 57.3225 14.9035 57.3225Z" fill="#060606"/>
<path d="M63.044 55.0248C63.6786 55.0248 64.193 54.5105 64.193 53.876C64.193 53.2415 63.6786 52.7271 63.044 52.7271C62.4094 52.7271 61.8949 53.2415 61.8949 53.876C61.8949 54.5105 62.4094 55.0248 63.044 55.0248Z" fill="#060606"/>
<path d="M76.7984 27.521C77.433 27.521 77.9474 27.0066 77.9474 26.3721C77.9474 25.7376 77.433 25.2233 76.7984 25.2233C76.1638 25.2233 75.6493 25.7376 75.6493 26.3721C75.6493 27.0066 76.1638 27.521 76.7984 27.521Z" fill="#060606"/>
<path d="M81.3775 45.8512C82.0121 45.8512 82.5265 45.3368 82.5265 44.7023C82.5265 44.0678 82.0121 43.5534 81.3775 43.5534C80.7429 43.5534 80.2284 44.0678 80.2284 44.7023C80.2284 45.3368 80.7429 45.8512 81.3775 45.8512Z" fill="#060606"/>
<path d="M85.9566 36.6946C85.322 36.6946 84.8075 37.209 84.8075 37.8435V40.1412C84.8075 40.7756 85.322 41.29 85.9566 41.29C86.5911 41.29 87.1056 40.7756 87.1056 40.1412V37.8435C87.1056 37.209 86.5911 36.6946 85.9566 36.6946Z" fill="#060606"/>
<path d="M83.6756 43.5706C84.3102 43.5706 84.8247 43.0562 84.8247 42.4217C84.8247 41.7873 84.3102 41.2729 83.6756 41.2729C83.041 41.2729 82.5265 41.7873 82.5265 42.4217C82.5265 43.0562 83.041 43.5706 83.6756 43.5706Z" fill="#060606"/>
<path d="M76.7984 45.8512C77.433 45.8512 77.9474 45.3368 77.9474 44.7023C77.9474 44.0678 77.433 43.5534 76.7984 43.5534C76.1638 43.5534 75.6493 44.0678 75.6493 44.7023C75.6493 45.3368 76.1638 45.8512 76.7984 45.8512Z" fill="#060606"/>
<path d="M88.2547 52.7271H85.9566C85.322 52.7271 84.8075 53.2415 84.8075 53.876V58.4542C84.8075 59.0887 85.322 59.6031 85.9566 59.6031C86.5911 59.6031 87.1056 59.0887 87.1056 58.4542V56.1565C87.1056 55.5221 87.6201 55.0077 88.2547 55.0077C88.8892 55.0077 89.4038 54.4933 89.4038 53.8588C89.4038 53.2244 88.8892 52.71 88.2547 52.71V52.7271Z" fill="#060606"/>
<path d="M74.5003 64.1813C75.1348 64.1813 75.6493 63.6669 75.6493 63.0325C75.6493 62.398 76.1638 61.8836 76.7984 61.8836C77.4329 61.8836 77.9474 62.398 77.9474 63.0325C77.9474 63.6669 78.462 64.1813 79.0965 64.1813C79.7311 64.1813 80.2456 63.6669 80.2456 63.0325V60.7348C80.2456 60.1003 79.7311 59.5859 79.0965 59.5859H74.5174C73.8829 59.5859 73.3684 60.1003 73.3684 60.7348V63.0325C73.3684 63.6669 73.8829 64.1813 74.5174 64.1813H74.5003Z" fill="#060606"/>
<path d="M72.2021 59.6031C72.8368 59.6031 73.3512 59.0887 73.3512 58.4542C73.3512 57.8197 72.8368 57.3054 72.2021 57.3054C71.5675 57.3054 71.0531 57.8197 71.0531 58.4542C71.0531 59.0887 71.5675 59.6031 72.2021 59.6031Z" fill="#060606"/>
<path d="M90.5528 59.6031C91.1874 59.6031 91.7019 59.0887 91.7019 58.4542C91.7019 57.8197 91.1874 57.3054 90.5528 57.3054C89.9182 57.3054 89.4038 57.8197 89.4038 58.4542C89.4038 59.0887 89.9182 59.6031 90.5528 59.6031Z" fill="#060606"/>
<path d="M81.3775 34.3969C80.7429 34.3969 80.2284 33.8825 80.2284 33.2481C80.2284 32.6136 79.7139 32.0992 79.0794 32.0992C78.4448 32.0992 77.9303 32.6136 77.9303 33.2481V35.5458C77.9303 36.1802 78.4448 36.6946 79.0794 36.6946C79.7139 36.6946 80.2284 37.209 80.2284 37.8435C80.2284 38.4779 79.7139 38.9923 79.0794 38.9923C78.4448 38.9923 77.9303 39.5068 77.9303 40.1412V42.4389C77.9303 43.0733 78.4448 43.5877 79.0794 43.5877C79.7139 43.5877 80.2284 43.0733 80.2284 42.4389C80.2284 41.8045 80.7429 41.29 81.3775 41.29C82.012 41.29 82.5265 40.7756 82.5265 40.1412V35.5629C82.5265 34.9285 82.012 34.4141 81.3775 34.4141V34.3969Z" fill="#060606"/>
<path d="M63.044 36.6946C63.6786 36.6946 64.193 36.1803 64.193 35.5458C64.193 34.9113 63.6786 34.3969 63.044 34.3969C62.4094 34.3969 61.8949 34.9113 61.8949 35.5458C61.8949 36.1803 62.4094 36.6946 63.044 36.6946Z" fill="#060606"/>
<path d="M14.9035 25.2233C15.5381 25.2233 16.0525 24.7089 16.0525 24.0744C16.0525 23.4399 15.5381 22.9256 14.9035 22.9256C14.2689 22.9256 13.7544 23.4399 13.7544 24.0744C13.7544 24.7089 14.2689 25.2233 14.9035 25.2233Z" fill="#060606"/>
<path d="M14.9035 20.645C15.5381 20.645 16.0525 20.1307 16.0525 19.4962C16.0525 18.8617 15.5381 18.3473 14.9035 18.3473C14.2689 18.3473 13.7544 18.8617 13.7544 19.4962C13.7544 20.1307 14.2689 20.645 14.9035 20.645Z" fill="#060606"/>
<path d="M5.72815 43.5706H3.43003C2.79548 43.5706 2.28097 44.085 2.28097 44.7194C2.28097 45.3539 2.79548 45.8683 3.43003 45.8683H5.72815C6.36271 45.8683 6.87721 46.3827 6.87721 47.0171C6.87721 47.6516 7.39172 48.166 8.02627 48.166C8.66083 48.166 9.17533 48.6804 9.17533 49.3148C9.17533 49.9493 9.68984 50.4637 10.3244 50.4637C10.9589 50.4637 11.4735 49.9493 11.4735 49.3148V47.0171C11.4735 46.3827 10.9589 45.8683 10.3244 45.8683C9.68984 45.8683 9.17533 45.3539 9.17533 44.7194V42.4217C9.17533 41.7873 8.66083 41.2729 8.02627 41.2729C7.39172 41.2729 6.87721 41.7873 6.87721 42.4217C6.87721 43.0562 6.36271 43.5706 5.72815 43.5706Z" fill="#060606"/>
<path d="M5.72815 32.0992C5.0936 32.0992 4.57909 32.6136 4.57909 33.2481V35.5458C4.57909 36.1802 5.0936 36.6946 5.72815 36.6946C6.36271 36.6946 6.87721 36.1802 6.87721 35.5458V33.2481C6.87721 32.6136 6.36271 32.0992 5.72815 32.0992Z" fill="#060606"/>
<path d="M18.3335 53.876C18.3335 54.5104 18.848 55.0248 19.4826 55.0248C20.1171 55.0248 20.6316 55.5392 20.6316 56.1737C20.6316 56.8081 21.1461 57.3225 21.7807 57.3225H24.0788C24.7134 57.3225 25.2279 56.8081 25.2279 56.1737C25.2279 55.5392 25.7424 55.0248 26.3769 55.0248H28.6751C29.3096 55.0248 29.8241 55.5392 29.8241 56.1737C29.8241 56.8081 30.3386 57.3225 30.9732 57.3225C31.6077 57.3225 32.1222 56.8081 32.1222 56.1737V51.5954C32.1222 50.961 31.6077 50.4466 30.9732 50.4466C30.3386 50.4466 29.8241 50.961 29.8241 51.5954C29.8241 52.2298 29.3096 52.7443 28.6751 52.7443H21.7978C21.1633 52.7443 20.6488 52.2298 20.6488 51.5954C20.6488 50.961 20.1343 50.4466 19.4997 50.4466H12.6225C11.988 50.4466 11.4735 50.961 11.4735 51.5954C11.4735 52.2298 11.988 52.7443 12.6225 52.7443H17.2016C17.8362 52.7443 18.3507 53.2587 18.3507 53.8931L18.3335 53.876Z" fill="#060606"/>
<path d="M30.9389 20.645C31.5735 20.645 32.0879 20.1307 32.0879 19.4962C32.0879 18.8617 31.5735 18.3473 30.9389 18.3473C30.3043 18.3473 29.7898 18.8617 29.7898 19.4962C29.7898 20.1307 30.3043 20.645 30.9389 20.645Z" fill="#060606"/>
<path d="M28.6579 25.2233C28.0233 25.2233 27.5088 25.7377 27.5088 26.3721C27.5088 27.0066 28.0233 27.521 28.6579 27.521C29.2925 27.521 29.807 28.0354 29.807 28.6698C29.807 29.3043 30.3215 29.8187 30.956 29.8187C31.5906 29.8187 32.1051 29.3043 32.1051 28.6698V24.0916C32.1051 23.4571 31.5906 22.9427 30.956 22.9427C30.3215 22.9427 29.807 23.4571 29.807 24.0916C29.807 24.726 29.2925 25.2404 28.6579 25.2404V25.2233Z" fill="#060606"/>
<path d="M8.02627 64.1985C8.66088 64.1985 9.17533 63.6841 9.17533 63.0496C9.17533 62.4151 8.66088 61.9008 8.02627 61.9008C7.39166 61.9008 6.87721 62.4151 6.87721 63.0496C6.87721 63.6841 7.39166 64.1985 8.02627 64.1985Z" fill="#060606"/>
<path d="M92.8338 34.3969C93.4684 34.3969 93.9828 33.8826 93.9828 33.2481C93.9828 32.6136 93.4684 32.0992 92.8338 32.0992C92.1992 32.0992 91.6847 32.6136 91.6847 33.2481C91.6847 33.8826 92.1992 34.3969 92.8338 34.3969Z" fill="#060606"/>
<path d="M49.2895 73.355C49.9242 73.355 50.4386 72.8406 50.4386 72.2061C50.4386 71.5716 49.9242 71.0573 49.2895 71.0573C48.6549 71.0573 48.1405 71.5716 48.1405 72.2061C48.1405 72.8406 48.6549 73.355 49.2895 73.355Z" fill="#060606"/>
<path d="M51.5705 71.0573C52.2051 71.0573 52.7196 71.5717 52.7196 72.2061C52.7196 72.8406 53.2341 73.355 53.8686 73.355C54.5032 73.355 55.0177 72.8406 55.0177 72.2061C55.0177 71.5717 55.5322 71.0573 56.1668 71.0573C56.8013 71.0573 57.3158 70.5429 57.3158 69.9084V65.3302C57.3158 64.6957 57.8303 64.1813 58.4649 64.1813C59.0994 64.1813 59.6139 63.6669 59.6139 63.0325C59.6139 62.398 59.0994 61.8836 58.4649 61.8836H51.5877C50.9531 61.8836 50.4386 62.398 50.4386 63.0325C50.4386 63.6669 49.9241 64.1813 49.2895 64.1813H44.7105C44.0759 64.1813 43.5614 64.6957 43.5614 65.3302V69.9084C43.5614 70.5429 44.0759 71.0573 44.7105 71.0573H47.0086C47.6431 71.0573 48.1576 70.5429 48.1576 69.9084C48.1576 69.274 47.6431 68.7596 47.0086 68.7596C46.374 68.7596 45.8595 68.2452 45.8595 67.6107C45.8595 66.9763 46.374 66.4619 47.0086 66.4619C47.6431 66.4619 48.1576 66.9763 48.1576 67.6107C48.1576 68.2452 48.6721 68.7596 49.3067 68.7596C49.9412 68.7596 50.4558 69.274 50.4558 69.9084C50.4558 70.5429 50.9703 71.0573 51.6048 71.0573H51.5705Z" fill="#060606"/>
<path d="M5.72815 61.9008C6.36276 61.9008 6.87721 61.3864 6.87721 60.7519C6.87721 60.1174 6.36276 59.6031 5.72815 59.6031C5.09354 59.6031 4.57909 60.1174 4.57909 60.7519C4.57909 61.3864 5.09354 61.9008 5.72815 61.9008Z" fill="#060606"/>
<path d="M74.5003 34.3969C73.8657 34.3969 73.3512 34.9113 73.3512 35.5458C73.3512 36.1802 72.8367 36.6946 72.2021 36.6946C71.5676 36.6946 71.0531 36.1802 71.0531 35.5458V33.2481C71.0531 32.6136 70.5386 32.0992 69.904 32.0992C69.2695 32.0992 68.755 31.5848 68.755 30.9504V28.6527C68.755 28.0182 68.2405 27.5038 67.6059 27.5038C66.9714 27.5038 66.4568 26.9894 66.4568 26.355C66.4568 25.7205 65.9423 25.2061 65.3078 25.2061H63.0097C62.3751 25.2061 61.8606 24.6917 61.8606 24.0573V19.479C61.8606 18.8446 62.3751 18.3302 63.0097 18.3302C63.6442 18.3302 64.1587 17.8158 64.1587 17.1813C64.1587 16.5469 63.6442 16.0325 63.0097 16.0325C62.3751 16.0325 61.8606 15.5181 61.8606 14.8836C61.8606 14.2492 61.3461 13.7348 60.7115 13.7348C60.077 13.7348 59.5625 14.2492 59.5625 14.8836V17.1813C59.5625 17.8158 59.048 18.3302 58.4134 18.3302C57.7789 18.3302 57.2644 18.8446 57.2644 19.479C57.2644 20.1135 57.7789 20.6279 58.4134 20.6279C59.048 20.6279 59.5625 21.1423 59.5625 21.7767V26.355C59.5625 26.9894 60.077 27.5038 60.7115 27.5038H63.0097C63.6442 27.5038 64.1587 28.0182 64.1587 28.6527C64.1587 29.2871 63.6442 29.8015 63.0097 29.8015C62.3751 29.8015 61.8606 30.3159 61.8606 30.9504C61.8606 31.5848 62.3751 32.0992 63.0097 32.0992H65.3078C65.9423 32.0992 66.4568 32.6136 66.4568 33.2481V35.5458C66.4568 36.1802 65.9423 36.6946 65.3078 36.6946C64.6732 36.6946 64.1587 37.209 64.1587 37.8435C64.1587 38.4779 64.6732 38.9923 65.3078 38.9923C65.9423 38.9923 66.4568 39.5068 66.4568 40.1412C66.4568 40.7756 66.9714 41.29 67.6059 41.29C68.2405 41.29 68.755 40.7756 68.755 40.1412C68.755 39.5068 69.2695 38.9923 69.904 38.9923H74.4831C75.1177 38.9923 75.6322 38.4779 75.6322 37.8435V35.5458C75.6322 34.9113 75.1177 34.3969 74.4831 34.3969H74.5003Z" fill="#060606"/>
<path d="M10.3244 64.1813C9.68984 64.1813 9.17533 64.6957 9.17533 65.3302C9.17533 65.9646 8.66083 66.479 8.02627 66.479C7.39172 66.479 6.87721 66.9934 6.87721 67.6279C6.87721 68.2623 7.39172 68.7767 8.02627 68.7767H10.3244C10.9589 68.7767 11.4735 68.2623 11.4735 67.6279C11.4735 66.9934 11.988 66.479 12.6225 66.479H14.9206C15.5552 66.479 16.0697 65.9646 16.0697 65.3302C16.0697 64.6957 15.5552 64.1813 14.9206 64.1813H10.3244Z" fill="#060606"/>
<path d="M14.9035 71.0744C15.5381 71.0744 16.0525 70.5601 16.0525 69.9256C16.0525 69.2911 15.5381 68.7767 14.9035 68.7767C14.2689 68.7767 13.7544 69.2911 13.7544 69.9256C13.7544 70.5601 14.2689 71.0744 14.9035 71.0744Z" fill="#060606"/>
<path d="M1.14906 66.479H5.72815C6.36271 66.479 6.87721 65.9646 6.87721 65.3302C6.87721 64.6957 6.36271 64.1813 5.72815 64.1813H1.14906C0.514505 64.1813 0 64.6957 0 65.3302C0 65.9646 0.514505 66.479 1.14906 66.479Z" fill="#060606"/>
<path d="M60.7458 84.8092H58.4477C57.8132 84.8092 57.2987 84.2948 57.2987 83.6603C57.2987 83.0259 56.7842 82.5115 56.1496 82.5115C55.5151 82.5115 55.0005 81.9971 55.0005 81.3626C55.0005 80.7282 54.486 80.2138 53.8515 80.2138C53.2169 80.2138 52.7024 80.7282 52.7024 81.3626V83.6603C52.7024 84.2948 53.2169 84.8092 53.8515 84.8092C54.486 84.8092 55.0005 85.3236 55.0005 85.958C55.0005 86.5925 55.5151 87.1069 56.1496 87.1069C56.7842 87.1069 57.2987 87.6213 57.2987 88.2557C57.2987 88.8902 56.7842 89.4046 56.1496 89.4046C55.5151 89.4046 55.0005 88.8902 55.0005 88.2557C55.0005 87.6213 54.486 87.1069 53.8515 87.1069H51.5534C50.9188 87.1069 50.4043 87.6213 50.4043 88.2557C50.4043 88.8902 49.8898 89.4046 49.2552 89.4046C48.6207 89.4046 48.1062 89.919 48.1062 90.5534V92.8512C48.1062 93.4856 48.6207 94 49.2552 94H53.8343C54.4689 94 54.9834 93.4856 54.9834 92.8512C54.9834 92.2167 55.4979 91.7023 56.1325 91.7023C56.767 91.7023 57.2815 92.2167 57.2815 92.8512C57.2815 93.4856 57.796 94 58.4306 94C59.0651 94 59.5796 93.4856 59.5796 92.8512V90.5534C59.5796 89.919 60.0941 89.4046 60.7287 89.4046C61.3633 89.4046 61.8778 88.8902 61.8778 88.2557V85.958C61.8778 85.3236 61.3633 84.8092 60.7287 84.8092H60.7458Z" fill="#060606"/>
<path d="M49.2895 87.1069C49.9241 87.1069 50.4386 86.5925 50.4386 85.958C50.4386 85.3236 49.9241 84.8092 49.2895 84.8092H46.9914C46.3569 84.8092 45.8424 84.2948 45.8424 83.6603C45.8424 83.0259 45.3279 82.5115 44.6933 82.5115C44.0587 82.5115 43.5442 83.0259 43.5442 83.6603C43.5442 84.2948 43.0297 84.8092 42.3952 84.8092H37.8161C37.1815 84.8092 36.667 85.3236 36.667 85.958C36.667 86.5925 37.1815 87.1069 37.8161 87.1069H40.1142C40.7488 87.1069 41.2633 87.6213 41.2633 88.2557C41.2633 88.8902 41.7778 89.4046 42.4123 89.4046H46.9914C47.626 89.4046 48.1405 88.8902 48.1405 88.2557C48.1405 87.6213 48.655 87.1069 49.2895 87.1069Z" fill="#060606"/>
<path d="M37.8161 89.4046C37.1815 89.4046 36.667 88.8902 36.667 88.2557C36.667 87.6213 36.1525 87.1069 35.518 87.1069H33.2198C32.5853 87.1069 32.0708 87.6213 32.0708 88.2557C32.0708 88.8902 32.5853 89.4046 33.2198 89.4046C33.8544 89.4046 34.3689 89.919 34.3689 90.5534V92.8512C34.3689 93.4856 34.8834 94 35.518 94C36.1525 94 36.667 93.4856 36.667 92.8512C36.667 92.2167 37.1815 91.7023 37.8161 91.7023C38.4506 91.7023 38.9651 91.1879 38.9651 90.5534C38.9651 89.919 38.4506 89.4046 37.8161 89.4046Z" fill="#060606"/>
<path d="M63.044 71.0573C62.4094 71.0573 61.8949 70.5429 61.8949 69.9084V67.6107C61.8949 66.9763 62.4094 66.4619 63.044 66.4619H65.3421C65.9766 66.4619 66.4911 66.9763 66.4911 67.6107C66.4911 68.2452 67.0057 68.7596 67.6402 68.7596H69.9383C70.5729 68.7596 71.0874 68.2452 71.0874 67.6107V60.7348C71.0874 60.1003 70.5729 59.5859 69.9383 59.5859C69.3038 59.5859 68.7893 59.0715 68.7893 58.4371V56.1394C68.7893 55.5049 68.2748 54.9905 67.6402 54.9905C67.0057 54.9905 66.4911 55.5049 66.4911 56.1394V63.0153C66.4911 63.6498 65.9766 64.1642 65.3421 64.1642H60.763C60.1284 64.1642 59.6139 64.6786 59.6139 65.313V72.189C59.6139 72.8234 59.0994 73.3378 58.4649 73.3378C57.8303 73.3378 57.3158 73.8522 57.3158 74.4867C57.3158 75.1211 56.8013 75.6355 56.1668 75.6355H51.5877C50.9531 75.6355 50.4386 76.1499 50.4386 76.7844C50.4386 77.4188 49.9241 77.9332 49.2895 77.9332C48.655 77.9332 48.1405 78.4476 48.1405 79.0821C48.1405 79.7165 48.655 80.2309 49.2895 80.2309H51.5877C52.2222 80.2309 52.7367 79.7165 52.7367 79.0821C52.7367 78.4476 53.2512 77.9332 53.8858 77.9332H56.1839C56.8185 77.9332 57.333 78.4476 57.333 79.0821V81.3798C57.333 82.0142 57.8475 82.5286 58.482 82.5286H60.7801C61.4147 82.5286 61.9292 82.0142 61.9292 81.3798V74.5038C61.9292 73.8694 62.4437 73.355 63.0783 73.355C63.7128 73.355 64.2273 72.8406 64.2273 72.2061C64.2273 71.5717 63.7128 71.0573 63.0783 71.0573H63.044Z" fill="#060606"/>
<path d="M65.3249 71.0744C65.9595 71.0744 66.474 70.5601 66.474 69.9256C66.474 69.2911 65.9595 68.7767 65.3249 68.7767C64.6903 68.7767 64.1759 69.2911 64.1759 69.9256C64.1759 70.5601 64.6903 71.0744 65.3249 71.0744Z" fill="#060606"/>
<path d="M67.6231 73.355H69.9212C70.5557 73.355 71.0702 72.8406 71.0702 72.2061C71.0702 71.5717 70.5557 71.0573 69.9212 71.0573H67.6231C66.9885 71.0573 66.474 71.5717 66.474 72.2061C66.474 72.8406 66.9885 73.355 67.6231 73.355Z" fill="#060606"/>
<path d="M65.3249 73.355C64.6904 73.355 64.1759 73.8694 64.1759 74.5038V76.8015C64.1759 77.436 64.6904 77.9504 65.3249 77.9504C65.9595 77.9504 66.474 77.436 66.474 76.8015V74.5038C66.474 73.8694 65.9595 73.355 65.3249 73.355Z" fill="#060606"/>
<path d="M65.3249 89.4046C65.9595 89.4046 66.474 88.8902 66.474 88.2557C66.474 87.6213 65.9595 87.1069 65.3249 87.1069C64.6903 87.1069 64.1759 87.6213 64.1759 88.2557C64.1759 88.8902 64.6903 89.4046 65.3249 89.4046Z" fill="#060606"/>
<path d="M24.0617 89.4046C23.4271 89.4046 22.9126 89.919 22.9126 90.5534V92.8512C22.9126 93.4856 23.4271 94 24.0617 94C24.6962 94 25.2107 93.4856 25.2107 92.8512V90.5534C25.2107 89.919 24.6962 89.4046 24.0617 89.4046Z" fill="#060606"/>
<path d="M22.9298 85.958C22.9298 85.3236 22.4153 84.8092 21.7807 84.8092H19.4826C18.848 84.8092 18.3335 85.3236 18.3335 85.958C18.3335 86.5925 18.848 87.1069 19.4826 87.1069C20.1171 87.1069 20.6316 87.6213 20.6316 88.2557C20.6316 88.8902 21.1461 89.4046 21.7807 89.4046C22.4153 89.4046 22.9298 88.8902 22.9298 88.2557V85.958Z" fill="#060606"/>
<path d="M42.4123 64.1985C43.0469 64.1985 43.5614 63.6841 43.5614 63.0496C43.5614 62.4151 43.0469 61.9008 42.4123 61.9008C41.7777 61.9008 41.2633 62.4151 41.2633 63.0496C41.2633 63.6841 41.7777 64.1985 42.4123 64.1985Z" fill="#060606"/>
<path d="M30.9389 89.4046C30.3043 89.4046 29.7898 89.919 29.7898 90.5534V92.8512C29.7898 93.4856 30.3043 94 30.9389 94C31.5734 94 32.0879 93.4856 32.0879 92.8512V90.5534C32.0879 89.919 31.5734 89.4046 30.9389 89.4046Z" fill="#060606"/>
<path d="M26.3598 87.1069C26.9944 87.1069 27.5088 86.5925 27.5088 85.958C27.5088 85.3235 26.9944 84.8092 26.3598 84.8092C25.7252 84.8092 25.2107 85.3235 25.2107 85.958C25.2107 86.5925 25.7252 87.1069 26.3598 87.1069Z" fill="#060606"/>
<path d="M28.6579 89.4046C29.2925 89.4046 29.807 88.8902 29.807 88.2557C29.807 87.6213 29.2925 87.1069 28.6579 87.1069C28.0233 87.1069 27.5088 87.6213 27.5088 88.2557C27.5088 88.8902 28.0233 89.4046 28.6579 89.4046Z" fill="#060606"/>
<path d="M90.5528 89.4046C89.9183 89.4046 89.4038 89.919 89.4038 90.5534V92.8512C89.4038 93.4856 89.9183 94 90.5528 94C91.1874 94 91.7019 93.4856 91.7019 92.8512V90.5534C91.7019 89.919 91.1874 89.4046 90.5528 89.4046Z" fill="#060606"/>
<path d="M92.8338 80.2309H85.9566C85.322 80.2309 84.8075 79.7165 84.8075 79.0821C84.8075 78.4476 85.322 77.9332 85.9566 77.9332C86.5911 77.9332 87.1056 77.4188 87.1056 76.7844C87.1056 76.1499 86.5911 75.6355 85.9566 75.6355C85.322 75.6355 84.8075 75.1211 84.8075 74.4867V72.189C84.8075 71.5545 84.293 71.0401 83.6584 71.0401C83.0239 71.0401 82.5094 71.5545 82.5094 72.189C82.5094 72.8234 81.9949 73.3378 81.3603 73.3378H79.0622C78.4277 73.3378 77.9131 72.8234 77.9131 72.189C77.9131 71.5545 77.3986 71.0401 76.7641 71.0401C76.1295 71.0401 75.615 70.5257 75.615 69.8913V67.5936C75.615 66.9591 75.1005 66.4447 74.466 66.4447C73.8314 66.4447 73.3169 66.9591 73.3169 67.5936V74.4695C73.3169 75.104 72.8024 75.6184 72.1679 75.6184C71.5333 75.6184 71.0188 76.1328 71.0188 76.7672C71.0188 77.4017 71.5333 77.9161 72.1679 77.9161C72.8024 77.9161 73.3169 78.4305 73.3169 79.0649V83.6432C73.3169 84.2776 73.8314 84.792 74.466 84.792C75.1005 84.792 75.615 85.3065 75.615 85.9409C75.615 86.5753 76.1295 87.0897 76.7641 87.0897H79.0622C79.6968 87.0897 80.2113 86.5753 80.2113 85.9409C80.2113 85.3065 80.7258 84.792 81.3603 84.792C81.9949 84.792 82.5094 85.3065 82.5094 85.9409V88.2386C82.5094 88.873 83.0239 89.3875 83.6584 89.3875C84.293 89.3875 84.8075 88.873 84.8075 88.2386C84.8075 87.6042 85.322 87.0897 85.9566 87.0897C86.5911 87.0897 87.1056 86.5753 87.1056 85.9409V83.6432C87.1056 83.0088 87.6201 82.4943 88.2547 82.4943H90.5528C91.1874 82.4943 91.7019 83.0088 91.7019 83.6432C91.7019 84.2776 92.2164 84.792 92.8509 84.792C93.4855 84.792 94 84.2776 94 83.6432V81.3455C94 80.7111 93.4855 80.1966 92.8509 80.1966L92.8338 80.2309ZM82.5265 79.0821V81.3798C82.5265 82.0142 82.012 82.5286 81.3775 82.5286H76.7984C76.1638 82.5286 75.6493 82.0142 75.6493 81.3798V76.8015C75.6493 76.1671 76.1638 75.6527 76.7984 75.6527H81.3775C82.012 75.6527 82.5265 76.1671 82.5265 76.8015V79.0992V79.0821Z" fill="#060606"/>
<path d="M92.8338 18.3473H90.5357C89.9011 18.3473 89.3866 18.8617 89.3866 19.4962C89.3866 20.1306 88.8721 20.645 88.2375 20.645C87.603 20.645 87.0885 20.1306 87.0885 19.4962C87.0885 18.8617 86.574 18.3473 85.9394 18.3473H81.3603C80.7258 18.3473 80.2113 18.8617 80.2113 19.4962C80.2113 20.1306 79.6968 20.645 79.0622 20.645H74.4831C73.8486 20.645 73.3341 21.1594 73.3341 21.7939C73.3341 22.4283 73.8486 22.9427 74.4831 22.9427H79.0622C79.6968 22.9427 80.2113 23.4571 80.2113 24.0916V26.3893C80.2113 27.0237 79.6968 27.5381 79.0622 27.5381C78.4277 27.5381 77.9131 28.0525 77.9131 28.687C77.9131 29.3214 78.4277 29.8358 79.0622 29.8358H81.3603C81.9949 29.8358 82.5094 29.3214 82.5094 28.687V21.811C82.5094 21.1766 83.0239 20.6622 83.6584 20.6622C84.293 20.6622 84.8075 21.1766 84.8075 21.811V24.1087C84.8075 24.7432 85.322 25.2576 85.9566 25.2576C86.5911 25.2576 87.1056 25.772 87.1056 26.4064C87.1056 27.0409 87.6201 27.5553 88.2547 27.5553C88.8892 27.5553 89.4038 27.0409 89.4038 26.4064C89.4038 25.772 89.9183 25.2576 90.5528 25.2576C91.1874 25.2576 91.7019 24.7432 91.7019 24.1087C91.7019 23.4743 92.2164 22.9599 92.8509 22.9599C93.4855 22.9599 94 22.4455 94 21.811V19.5133C94 18.8789 93.4855 18.3645 92.8509 18.3645L92.8338 18.3473Z" fill="#060606"/>
<path d="M92.8338 66.479C92.1992 66.479 91.6847 65.9646 91.6847 65.3302C91.6847 64.6957 91.1702 64.1813 90.5357 64.1813C89.9011 64.1813 89.3866 64.6957 89.3866 65.3302C89.3866 65.9646 88.8721 66.479 88.2375 66.479C87.603 66.479 87.0885 66.9934 87.0885 67.6279C87.0885 68.2623 86.574 68.7767 85.9394 68.7767C85.3049 68.7767 84.7904 69.2911 84.7904 69.9256C84.7904 70.56 85.3049 71.0744 85.9394 71.0744H88.2375C88.8721 71.0744 89.3866 70.56 89.3866 69.9256C89.3866 69.2911 89.9011 68.7767 90.5357 68.7767C91.1702 68.7767 91.6847 69.2911 91.6847 69.9256C91.6847 70.56 91.1702 71.0744 90.5357 71.0744C89.9011 71.0744 89.3866 71.5888 89.3866 72.2233C89.3866 72.8577 88.8721 73.3721 88.2375 73.3721C87.603 73.3721 87.0885 73.8865 87.0885 74.521C87.0885 75.1554 87.603 75.6698 88.2375 75.6698C88.8721 75.6698 89.3866 76.1842 89.3866 76.8187C89.3866 77.4531 89.9011 77.9675 90.5357 77.9675H92.8338C93.4683 77.9675 93.9828 77.4531 93.9828 76.8187V67.645C93.9828 67.0106 93.4683 66.4962 92.8338 66.4962V66.479Z" fill="#060606"/>
<path d="M92.8338 36.6946H90.5357C89.9011 36.6946 89.3866 37.209 89.3866 37.8435V40.1412C89.3866 40.7756 88.8721 41.29 88.2375 41.29C87.603 41.29 87.0885 41.8045 87.0885 42.4389C87.0885 43.0733 87.603 43.5877 88.2375 43.5877C88.8721 43.5877 89.3866 44.1022 89.3866 44.7366C89.3866 45.371 88.8721 45.8854 88.2375 45.8854H85.9394C85.3049 45.8854 84.7904 46.3999 84.7904 47.0343V49.332C84.7904 49.9664 85.3049 50.4809 85.9394 50.4809C86.574 50.4809 87.0885 49.9664 87.0885 49.332C87.0885 48.6976 87.603 48.1831 88.2375 48.1831C88.8721 48.1831 89.3866 48.6976 89.3866 49.332V51.6297C89.3866 52.2641 89.9011 52.7785 90.5357 52.7785C91.1702 52.7785 91.6847 52.2641 91.6847 51.6297C91.6847 50.9953 92.1992 50.4809 92.8338 50.4809C93.4683 50.4809 93.9828 49.9664 93.9828 49.332C93.9828 48.6976 93.4683 48.1831 92.8338 48.1831C92.1992 48.1831 91.6847 47.6687 91.6847 47.0343V44.7366C91.6847 44.1022 92.1992 43.5877 92.8338 43.5877C93.4683 43.5877 93.9828 43.0733 93.9828 42.4389V37.8606C93.9828 37.2262 93.4683 36.7118 92.8338 36.7118V36.6946Z" fill="#060606"/>
<path d="M92.8338 59.6031C92.1992 59.6031 91.6847 60.1175 91.6847 60.7519V63.0496C91.6847 63.6841 92.1992 64.1985 92.8338 64.1985C93.4683 64.1985 93.9828 63.6841 93.9828 63.0496V60.7519C93.9828 60.1175 93.4683 59.6031 92.8338 59.6031Z" fill="#060606"/>
<path d="M90.5528 29.8187C91.1874 29.8187 91.7019 29.3043 91.7019 28.6698C91.7019 28.0353 91.1874 27.521 90.5528 27.521C89.9182 27.521 89.4038 28.0353 89.4038 28.6698C89.4038 29.3043 89.9182 29.8187 90.5528 29.8187Z" fill="#060606"/>
<path d="M79.0794 80.2309C79.714 80.2309 80.2284 79.7166 80.2284 79.0821C80.2284 78.4476 79.714 77.9332 79.0794 77.9332C78.4448 77.9332 77.9303 78.4476 77.9303 79.0821C77.9303 79.7166 78.4448 80.2309 79.0794 80.2309Z" fill="#060606"/>
<path d="M67.6231 82.5286H65.3249C64.6904 82.5286 64.1759 83.0431 64.1759 83.6775C64.1759 84.3119 64.6904 84.8263 65.3249 84.8263H67.6231C68.2576 84.8263 68.7721 84.3119 68.7721 83.6775C68.7721 83.0431 68.2576 82.5286 67.6231 82.5286Z" fill="#060606"/>
<path d="M71.0531 79.0821C71.0531 78.4476 70.5386 77.9332 69.904 77.9332C69.2695 77.9332 68.755 78.4476 68.755 79.0821V81.3798C68.755 82.0142 69.2695 82.5286 69.904 82.5286C70.5386 82.5286 71.0531 82.0142 71.0531 81.3798V79.0821Z" fill="#060606"/>
<path d="M67.6231 89.4046C66.9885 89.4046 66.474 89.919 66.474 90.5534V92.8512C66.474 93.4856 66.9885 94 67.6231 94C68.2576 94 68.7721 93.4856 68.7721 92.8512V90.5534C68.7721 89.919 68.2576 89.4046 67.6231 89.4046Z" fill="#060606"/>
<path d="M72.2021 89.4046C72.8368 89.4046 73.3512 88.8902 73.3512 88.2557C73.3512 87.6213 72.8368 87.1069 72.2021 87.1069C71.5675 87.1069 71.0531 87.6213 71.0531 88.2557C71.0531 88.8902 71.5675 89.4046 72.2021 89.4046Z" fill="#060606"/>
<path d="M19.4826 77.9332C20.1171 77.9332 20.6316 78.4476 20.6316 79.0821V81.3798C20.6316 82.0142 21.1461 82.5286 21.7807 82.5286C22.4153 82.5286 22.9298 82.0142 22.9298 81.3798C22.9298 80.7453 23.4443 80.2309 24.0788 80.2309H28.6579C29.2925 80.2309 29.807 80.7453 29.807 81.3798V85.958C29.807 86.5925 30.3215 87.1069 30.956 87.1069C31.5906 87.1069 32.1051 86.5925 32.1051 85.958C32.1051 85.3236 32.6196 84.8092 33.2541 84.8092H35.5523C36.1868 84.8092 36.7013 84.2948 36.7013 83.6603C36.7013 83.0259 36.1868 82.5115 35.5523 82.5115H33.2541C32.6196 82.5115 32.1051 81.9971 32.1051 81.3626V76.7844C32.1051 76.1499 31.5906 75.6355 30.956 75.6355C30.3215 75.6355 29.807 75.1211 29.807 74.4867C29.807 73.8522 30.3215 73.3378 30.956 73.3378C31.5906 73.3378 32.1051 73.8522 32.1051 74.4867C32.1051 75.1211 32.6196 75.6355 33.2541 75.6355C33.8887 75.6355 34.4032 76.1499 34.4032 76.7844C34.4032 77.4188 34.9177 77.9332 35.5523 77.9332C36.1868 77.9332 36.7013 77.4188 36.7013 76.7844C36.7013 76.1499 37.2158 75.6355 37.8504 75.6355H47.0257C47.6603 75.6355 48.1748 75.1211 48.1748 74.4867C48.1748 73.8522 47.6603 73.3378 47.0257 73.3378H42.4466C41.8121 73.3378 41.2976 72.8234 41.2976 72.189V65.313C41.2976 64.6786 40.7831 64.1642 40.1485 64.1642C39.514 64.1642 38.9995 64.6786 38.9995 65.313V69.8913C38.9995 70.5257 38.4849 71.0401 37.8504 71.0401C37.2158 71.0401 36.7013 71.5545 36.7013 72.189C36.7013 72.8234 36.1868 73.3378 35.5523 73.3378C34.9177 73.3378 34.4032 72.8234 34.4032 72.189V69.8913C34.4032 69.2568 33.8887 68.7424 33.2541 68.7424H30.956C30.3215 68.7424 29.807 69.2568 29.807 69.8913C29.807 70.5257 29.2925 71.0401 28.6579 71.0401C28.0233 71.0401 27.5088 71.5545 27.5088 72.189V76.7672C27.5088 77.4017 26.9943 77.9161 26.3598 77.9161C25.7252 77.9161 25.2107 77.4017 25.2107 76.7672V72.189C25.2107 71.5545 24.6962 71.0401 24.0617 71.0401C23.4271 71.0401 22.9126 71.5545 22.9126 72.189C22.9126 72.8234 22.3981 73.3378 21.7635 73.3378H14.8863C14.2518 73.3378 13.7373 72.8234 13.7373 72.189C13.7373 71.5545 13.2228 71.0401 12.5882 71.0401H8.00912C7.37457 71.0401 6.86006 71.5545 6.86006 72.189V74.4867C6.86006 75.1211 7.37457 75.6355 8.00912 75.6355C8.64368 75.6355 9.15818 75.1211 9.15818 74.4867C9.15818 73.8522 9.67269 73.3378 10.3072 73.3378C10.9418 73.3378 11.4563 73.8522 11.4563 74.4867C11.4563 75.1211 11.9708 75.6355 12.6054 75.6355H17.1845C17.819 75.6355 18.3335 76.1499 18.3335 76.7844C18.3335 77.4188 18.848 77.9332 19.4826 77.9332Z" fill="#060606"/>
<path d="M85.9566 91.6852H83.6584C83.0239 91.6852 82.5094 91.1707 82.5094 90.5363C82.5094 89.9019 81.9949 89.3875 81.3603 89.3875H79.0622C78.4277 89.3875 77.9131 89.9019 77.9131 90.5363C77.9131 91.1707 77.3986 91.6852 76.7641 91.6852C76.1295 91.6852 75.615 91.1707 75.615 90.5363C75.615 89.9019 75.1005 89.3875 74.466 89.3875C73.8314 89.3875 73.3169 89.9019 73.3169 90.5363C73.3169 91.1707 72.8024 91.6852 72.1679 91.6852C71.5333 91.6852 71.0188 92.1996 71.0188 92.834C71.0188 93.4684 71.5333 93.9828 72.1679 93.9828H85.9223C86.5568 93.9828 87.0713 93.4684 87.0713 92.834C87.0713 92.1996 86.5568 91.6852 85.9223 91.6852H85.9566Z" fill="#060606"/>
<path d="M92.8338 89.4046C93.4684 89.4046 93.9828 88.8902 93.9828 88.2557C93.9828 87.6213 93.4684 87.1069 92.8338 87.1069C92.1992 87.1069 91.6847 87.6213 91.6847 88.2557C91.6847 88.8902 92.1992 89.4046 92.8338 89.4046Z" fill="#060606"/>
<path d="M41.2633 79.0821C41.2633 78.4476 40.7488 77.9332 40.1142 77.9332H37.8161C37.1815 77.9332 36.667 78.4476 36.667 79.0821C36.667 79.7165 37.1815 80.2309 37.8161 80.2309C38.4506 80.2309 38.9651 80.7453 38.9651 81.3798C38.9651 82.0142 39.4797 82.5286 40.1142 82.5286H42.4123C43.0469 82.5286 43.5614 82.0142 43.5614 81.3798C43.5614 80.7453 43.0469 80.2309 42.4123 80.2309C41.7778 80.2309 41.2633 79.7165 41.2633 79.0821Z" fill="#060606"/>
<path d="M51.5705 9.19081H53.8686C54.5032 9.19081 55.0177 8.6764 55.0177 8.04196C55.0177 7.40752 54.5032 6.89311 53.8686 6.89311H51.5705C50.936 6.89311 50.4215 7.40752 50.4215 8.04196C50.4215 8.6764 50.936 9.19081 51.5705 9.19081Z" fill="#060606"/>
<path d="M74.5003 16.0668C75.1349 16.0668 75.6493 15.5524 75.6493 14.9179C75.6493 14.2834 75.1349 13.7691 74.5003 13.7691C73.8657 13.7691 73.3512 14.2834 73.3512 14.9179C73.3512 15.5524 73.8657 16.0668 74.5003 16.0668Z" fill="#060606"/>
<path d="M19.4826 4.5954C20.1171 4.5954 20.6316 4.08099 20.6316 3.44655V1.166C20.6316 0.531558 20.1171 0.017147 19.4826 0.017147C18.848 0.017147 18.3335 0.531558 18.3335 1.166V3.4637C18.3335 4.09814 18.848 4.61255 19.4826 4.61255V4.5954Z" fill="#060606"/>
<path d="M56.1668 4.5954C56.8013 4.5954 57.3158 5.10981 57.3158 5.74425V8.04196C57.3158 8.6764 57.8303 9.19081 58.4649 9.19081C59.0994 9.19081 59.6139 9.70522 59.6139 10.3397C59.6139 10.9741 60.1284 11.4885 60.763 11.4885C61.3976 11.4885 61.9121 12.0029 61.9121 12.6374C61.9121 13.2718 62.4266 13.7862 63.0611 13.7862C63.6957 13.7862 64.2102 13.2718 64.2102 12.6374C64.2102 12.0029 64.7247 11.4885 65.3592 11.4885H67.6574C68.2919 11.4885 68.8064 10.9741 68.8064 10.3397C68.8064 9.70522 68.2919 9.19081 67.6574 9.19081H65.3592C64.7247 9.19081 64.2102 8.6764 64.2102 8.04196V5.74425C64.2102 5.10981 64.7247 4.5954 65.3592 4.5954C65.9938 4.5954 66.5083 5.10981 66.5083 5.74425C66.5083 6.37869 67.0228 6.89311 67.6574 6.89311C68.2919 6.89311 68.8064 6.37869 68.8064 5.74425V3.44655C68.8064 2.81211 69.3209 2.2977 69.9555 2.2977H72.2536C72.8882 2.2977 73.4027 1.78329 73.4027 1.14885C73.4027 0.514411 72.8882 0 72.2536 0H63.0783C62.4437 0 61.9292 0.514411 61.9292 1.14885C61.9292 1.78329 61.4147 2.2977 60.7801 2.2977C60.1456 2.2977 59.6311 1.78329 59.6311 1.14885C59.6311 0.514411 59.1166 0 58.482 0H56.1839C55.5493 0 55.0348 0.514411 55.0348 1.14885V3.44655C55.0348 4.08099 55.5493 4.5954 56.1839 4.5954H56.1668ZM60.7458 4.5954C61.3804 4.5954 61.8949 5.10981 61.8949 5.74425C61.8949 6.37869 61.3804 6.89311 60.7458 6.89311C60.1113 6.89311 59.5968 6.37869 59.5968 5.74425C59.5968 5.10981 60.1113 4.5954 60.7458 4.5954Z" fill="#060606"/>
<path d="M49.2895 11.4714C49.9242 11.4714 50.4386 10.957 50.4386 10.3225C50.4386 9.68802 49.9242 9.17366 49.2895 9.17366C48.6549 9.17366 48.1405 9.68802 48.1405 10.3225C48.1405 10.957 48.6549 11.4714 49.2895 11.4714Z" fill="#060606"/>
<path d="M44.6933 4.5954H46.9914C47.626 4.5954 48.1405 4.08099 48.1405 3.44655C48.1405 2.81211 47.626 2.2977 46.9914 2.2977H44.6933C44.0587 2.2977 43.5442 2.81211 43.5442 3.44655C43.5442 4.08099 44.0587 4.5954 44.6933 4.5954Z" fill="#060606"/>
<path d="M24.0617 2.31485C24.6963 2.31485 25.2107 1.80049 25.2107 1.166C25.2107 0.531505 24.6963 0.017147 24.0617 0.017147C23.4271 0.017147 22.9126 0.531505 22.9126 1.166C22.9126 1.80049 23.4271 2.31485 24.0617 2.31485Z" fill="#060606"/>
<path d="M34.3861 5.74425V8.04196C34.3861 8.6764 34.9006 9.19081 35.5351 9.19081C36.1697 9.19081 36.6842 9.70522 36.6842 10.3397C36.6842 10.9741 37.1987 11.4885 37.8332 11.4885C38.4678 11.4885 38.9823 12.0029 38.9823 12.6374C38.9823 13.2718 39.4968 13.7862 40.1314 13.7862C40.7659 13.7862 41.2804 13.2718 41.2804 12.6374V8.0591C41.2804 7.42466 41.7949 6.91025 42.4295 6.91025C43.064 6.91025 43.5785 6.39584 43.5785 5.7614C43.5785 5.12696 43.064 4.61255 42.4295 4.61255C41.7949 4.61255 41.2804 4.09814 41.2804 3.4637V1.166C41.2804 0.531558 40.7659 0.017147 40.1314 0.017147C39.4968 0.017147 38.9823 0.531558 38.9823 1.166V3.4637C38.9823 4.09814 38.4678 4.61255 37.8332 4.61255H35.5351C34.9006 4.61255 34.3861 5.12696 34.3861 5.7614V5.74425Z" fill="#060606"/>
<path d="M51.5705 4.5954C52.2051 4.5954 52.7196 4.08105 52.7196 3.44655C52.7196 2.81206 52.2051 2.2977 51.5705 2.2977C50.9359 2.2977 50.4215 2.81206 50.4215 3.44655C50.4215 4.08105 50.9359 4.5954 51.5705 4.5954Z" fill="#060606"/>
<path d="M65.3249 22.9427C65.9595 22.9427 66.474 22.4284 66.474 21.7939C66.474 21.1594 65.9595 20.645 65.3249 20.645C64.6903 20.645 64.1759 21.1594 64.1759 21.7939C64.1759 22.4284 64.6903 22.9427 65.3249 22.9427Z" fill="#060606"/>
<path d="M72.2021 11.4714H69.904C69.2695 11.4714 68.755 11.9858 68.755 12.6202V14.9179C68.755 15.5524 69.2695 16.0668 69.904 16.0668C70.5386 16.0668 71.0531 15.5524 71.0531 14.9179C71.0531 14.2835 71.5676 13.7691 72.2021 13.7691C72.8367 13.7691 73.3512 13.2547 73.3512 12.6202C73.3512 11.9858 72.8367 11.4714 72.2021 11.4714Z" fill="#060606"/>
<path d="M65.3249 16.0668C65.9595 16.0668 66.474 15.5524 66.474 14.9179C66.474 14.2834 65.9595 13.7691 65.3249 13.7691C64.6903 13.7691 64.1759 14.2834 64.1759 14.9179C64.1759 15.5524 64.6903 16.0668 65.3249 16.0668Z" fill="#060606"/>
<path d="M67.6231 18.3473C68.2577 18.3473 68.7721 17.833 68.7721 17.1985C68.7721 16.564 68.2577 16.0496 67.6231 16.0496C66.9884 16.0496 66.474 16.564 66.474 17.1985C66.474 17.833 66.9884 18.3473 67.6231 18.3473Z" fill="#060606"/>
<path d="M72.2021 32.0992C72.8367 32.0992 73.3512 31.5848 73.3512 30.9504V28.6527C73.3512 28.0182 72.8367 27.5038 72.2021 27.5038C71.5676 27.5038 71.0531 28.0182 71.0531 28.6527V30.9504C71.0531 31.5848 71.5676 32.0992 72.2021 32.0992Z" fill="#060606"/>
<path d="M72.2021 18.3473C72.8368 18.3473 73.3512 17.833 73.3512 17.1985C73.3512 16.564 72.8368 16.0496 72.2021 16.0496C71.5675 16.0496 71.0531 16.564 71.0531 17.1985C71.0531 17.833 71.5675 18.3473 72.2021 18.3473Z" fill="#060606"/>
<path d="M72.2021 22.9427H69.904C69.2695 22.9427 68.755 23.4571 68.755 24.0916C68.755 24.726 69.2695 25.2404 69.904 25.2404H72.2021C72.8367 25.2404 73.3512 24.726 73.3512 24.0916C73.3512 23.4571 72.8367 22.9427 72.2021 22.9427Z" fill="#060606"/>
<path d="M1.14906 34.3969C1.78362 34.3969 2.29812 33.8825 2.29812 33.2481V30.9504C2.29812 30.3159 2.81263 29.8015 3.44718 29.8015C4.08174 29.8015 4.59624 29.2871 4.59624 28.6527V24.0744C4.59624 23.44 4.08174 22.9256 3.44718 22.9256C2.81263 22.9256 2.29812 22.4112 2.29812 21.7767C2.29812 21.1423 1.78362 20.6279 1.14906 20.6279C0.514505 20.6279 0 21.1423 0 21.7767V24.0744C0 24.7089 0.514505 25.2233 1.14906 25.2233C1.78362 25.2233 2.29812 25.7377 2.29812 26.3721C2.29812 27.0066 1.78362 27.521 1.14906 27.521C0.514505 27.521 0 28.0354 0 28.6698V33.2481C0 33.8825 0.514505 34.3969 1.14906 34.3969Z" fill="#060606"/>
<path d="M87.1056 28.6527C87.1056 28.0182 86.5911 27.5038 85.9566 27.5038C85.322 27.5038 84.8075 28.0182 84.8075 28.6527V30.9504C84.8075 31.5848 84.293 32.0992 83.6584 32.0992C83.0239 32.0992 82.5094 32.6136 82.5094 33.2481C82.5094 33.8825 83.0239 34.3969 83.6584 34.3969H85.9566C86.5911 34.3969 87.1056 33.8825 87.1056 33.2481V28.6527Z" fill="#060606"/>
<path d="M1.14906 61.9008C1.78362 61.9008 2.29812 61.3864 2.29812 60.7519V58.4542C2.29812 57.8198 1.78362 57.3054 1.14906 57.3054C0.514505 57.3054 0 57.8198 0 58.4542V60.7519C0 61.3864 0.514505 61.9008 1.14906 61.9008Z" fill="#060606"/>
<path d="M1.14906 55.0248H3.44718C4.08174 55.0248 4.59624 55.5392 4.59624 56.1737C4.59624 56.8081 5.11075 57.3225 5.7453 57.3225C6.37986 57.3225 6.89436 56.8081 6.89436 56.1737V49.2977C6.89436 48.6633 6.37986 48.1489 5.7453 48.1489H1.14906C0.514505 48.1489 0 48.6633 0 49.2977V53.876C0 54.5104 0.514505 55.0248 1.14906 55.0248ZM3.43003 50.4294C4.06459 50.4294 4.57909 50.9438 4.57909 51.5783C4.57909 52.2127 4.06459 52.7271 3.43003 52.7271C2.79548 52.7271 2.28097 52.2127 2.28097 51.5783C2.28097 50.9438 2.79548 50.4294 3.43003 50.4294Z" fill="#060606"/>
<path d="M5.72815 71.0744C6.36276 71.0744 6.87721 70.5601 6.87721 69.9256C6.87721 69.2911 6.36276 68.7767 5.72815 68.7767C5.09354 68.7767 4.57909 69.2911 4.57909 69.9256C4.57909 70.5601 5.09354 71.0744 5.72815 71.0744Z" fill="#060606"/>
<path d="M1.14906 71.0744C1.78367 71.0744 2.29812 70.5601 2.29812 69.9256C2.29812 69.2911 1.78367 68.7767 1.14906 68.7767C0.514452 68.7767 0 69.2911 0 69.9256C0 70.5601 0.514452 71.0744 1.14906 71.0744Z" fill="#060606"/>
<path d="M1.14906 75.6527C1.78367 75.6527 2.29812 75.1383 2.29812 74.5038C2.29812 73.8693 1.78367 73.355 1.14906 73.355C0.514452 73.355 0 73.8693 0 74.5038C0 75.1383 0.514452 75.6527 1.14906 75.6527Z" fill="#060606"/>
<path d="M19.4826 16.0668C20.1171 16.0668 20.6316 15.5524 20.6316 14.9179C20.6316 14.2835 21.1461 13.7691 21.7807 13.7691C22.4153 13.7691 22.9298 14.2835 22.9298 14.9179V17.2156C22.9298 17.8501 22.4153 18.3645 21.7807 18.3645C21.1461 18.3645 20.6316 18.8789 20.6316 19.5133V21.811C20.6316 22.4455 21.1461 22.9599 21.7807 22.9599C22.4153 22.9599 22.9298 22.4455 22.9298 21.811C22.9298 21.1766 23.4443 20.6622 24.0788 20.6622C24.7134 20.6622 25.2279 20.1478 25.2279 19.5133V14.9351C25.2279 14.3006 25.7424 13.7862 26.3769 13.7862C27.0115 13.7862 27.526 14.3006 27.526 14.9351V17.2328C27.526 17.8672 28.0405 18.3816 28.6751 18.3816C29.3096 18.3816 29.8241 17.8672 29.8241 17.2328V14.9351C29.8241 14.3006 30.3386 13.7862 30.9732 13.7862C31.6077 13.7862 32.1222 14.3006 32.1222 14.9351C32.1222 15.5695 32.6367 16.0839 33.2713 16.0839C33.9059 16.0839 34.4204 15.5695 34.4204 14.9351C34.4204 14.3006 34.9349 13.7862 35.5694 13.7862C36.204 13.7862 36.7185 13.2718 36.7185 12.6374C36.7185 12.0029 36.204 11.4885 35.5694 11.4885C34.9349 11.4885 34.4204 10.9741 34.4204 10.3397C34.4204 9.70522 33.9059 9.19081 33.2713 9.19081C32.6367 9.19081 32.1222 8.6764 32.1222 8.04196V5.74425C32.1222 5.10981 31.6077 4.5954 30.9732 4.5954C30.3386 4.5954 29.8241 4.08099 29.8241 3.44655C29.8241 2.81211 30.3386 2.2977 30.9732 2.2977H35.5523C36.1868 2.2977 36.7013 1.78329 36.7013 1.14885C36.7013 0.514411 36.1868 0 35.5523 0H28.6751C28.0405 0 27.526 0.514411 27.526 1.14885V5.72711C27.526 6.36155 28.0405 6.87596 28.6751 6.87596C29.3096 6.87596 29.8241 7.39037 29.8241 8.02481C29.8241 8.65925 29.3096 9.17366 28.6751 9.17366C28.0405 9.17366 27.526 9.68807 27.526 10.3225C27.526 10.957 27.0115 11.4714 26.3769 11.4714C25.7424 11.4714 25.2279 10.957 25.2279 10.3225C25.2279 9.68807 25.7424 9.17366 26.3769 9.17366C27.0115 9.17366 27.526 8.65925 27.526 8.02481C27.526 7.39037 27.0115 6.87596 26.3769 6.87596H24.0788C23.4443 6.87596 22.9298 7.39037 22.9298 8.02481C22.9298 8.65925 22.4153 9.17366 21.7807 9.17366C21.1461 9.17366 20.6316 8.65925 20.6316 8.02481C20.6316 7.39037 20.1171 6.87596 19.4826 6.87596C18.848 6.87596 18.3335 7.39037 18.3335 8.02481V14.9008C18.3335 15.5352 18.848 16.0496 19.4826 16.0496V16.0668Z" fill="#060606"/>
<path d="M17.1845 22.9427C17.8191 22.9427 18.3335 22.4284 18.3335 21.7939C18.3335 21.1594 17.8191 20.645 17.1845 20.645C16.5498 20.645 16.0354 21.1594 16.0354 21.7939C16.0354 22.4284 16.5498 22.9427 17.1845 22.9427Z" fill="#060606"/>
<path d="M1.14906 43.5706C1.78362 43.5706 2.29812 43.0562 2.29812 42.4217C2.29812 41.7873 2.81263 41.2729 3.44718 41.2729H5.7453C6.37986 41.2729 6.89436 40.7585 6.89436 40.124C6.89436 39.4896 6.37986 38.9752 5.7453 38.9752H1.14906C0.514505 38.9752 0 39.4896 0 40.124V42.4217C0 43.0562 0.514505 43.5706 1.14906 43.5706Z" fill="#060606"/>
<path d="M9.74129 4.5954H6.29411C5.34693 4.5954 4.57909 5.3631 4.57909 6.31011V9.75666C4.57909 10.7037 5.34693 11.4714 6.29411 11.4714H9.74129C10.6885 11.4714 11.4563 10.7037 11.4563 9.75666V6.31011C11.4563 5.3631 10.6885 4.5954 9.74129 4.5954Z" fill="#060606"/>
<path d="M3.43003 16.0668H12.6054C14.509 16.0668 16.0354 14.5235 16.0354 12.6374V3.44655C16.0354 1.54323 14.4919 0.017147 12.6054 0.017147H3.43003C1.54351 0.017147 0 1.56038 0 3.44655V12.6202C0 14.5235 1.54351 16.0496 3.43003 16.0496V16.0668ZM2.29812 4.71543C2.29812 3.37796 3.37858 2.31485 4.69914 2.31485H11.3534C12.6911 2.31485 13.7544 3.39511 13.7544 4.71543V11.3685C13.7544 12.7059 12.674 13.7691 11.3534 13.7691H4.69914C3.36143 13.7691 2.29812 12.6888 2.29812 11.3685V4.71543Z" fill="#060606"/>
<path d="M90.5528 0.017147H81.3775C79.4738 0.017147 77.9474 1.56038 77.9474 3.44655V12.6202C77.9474 14.5235 79.491 16.0496 81.3775 16.0496H90.5528C92.4565 16.0496 93.9828 14.5064 93.9828 12.6202V3.44655C93.9828 1.54323 92.4393 0.017147 90.5528 0.017147ZM91.6847 11.3685C91.6847 12.7059 90.6043 13.7691 89.2837 13.7691H82.6294C81.2917 13.7691 80.2284 12.6888 80.2284 11.3685V4.71543C80.2284 3.37796 81.3089 2.31485 82.6294 2.31485H89.2837C90.6214 2.31485 91.6847 3.39511 91.6847 4.71543V11.3685Z" fill="#060606"/>
<path d="M87.6887 4.5954H84.2416C83.2944 4.5954 82.5265 5.3631 82.5265 6.31011V9.75666C82.5265 10.7037 83.2944 11.4714 84.2416 11.4714H87.6887C88.6359 11.4714 89.4038 10.7037 89.4038 9.75666V6.31011C89.4038 5.3631 88.6359 4.5954 87.6887 4.5954Z" fill="#060606"/>
<path d="M12.6054 77.9332H3.43003C1.52636 77.9332 0 79.4765 0 81.3626V90.5363C0 92.4396 1.54351 93.9657 3.43003 93.9657H12.6054C14.509 93.9657 16.0354 92.4225 16.0354 90.5363V81.3626C16.0354 79.4593 14.4919 77.9332 12.6054 77.9332ZM13.7544 89.2846C13.7544 90.622 12.674 91.6852 11.3534 91.6852H4.69914C3.36143 91.6852 2.29812 90.6049 2.29812 89.2846V82.6315C2.29812 81.2941 3.37858 80.2309 4.69914 80.2309H11.3534C12.6911 80.2309 13.7544 81.3112 13.7544 82.6315V89.2846Z" fill="#060606"/>
<path d="M9.74129 82.5286H6.29411C5.34693 82.5286 4.57909 83.2963 4.57909 84.2433V87.6899C4.57909 88.6369 5.34693 89.4046 6.29411 89.4046H9.74129C10.6885 89.4046 11.4563 88.6369 11.4563 87.6899V84.2433C11.4563 83.2963 10.6885 82.5286 9.74129 82.5286Z" fill="#060606"/>
<path d="M42.1894 51.9041L46.9914 47.0857L51.7935 51.9041L53.7314 49.9664L50.1985 46.5199H55.1549V43.7592H50.2157L53.7314 40.4155L51.7935 38.4265L48.4492 41.8559V36.969H45.5337V41.8559L42.1894 38.4265L40.2514 40.4155L43.7672 43.7592H38.8279V46.5199H43.7843L40.2514 49.9493L42.1894 51.9041Z" fill="#060606"/>
<path d="M48.432 50.4809H45.5337V57.031H48.432V50.4809Z" fill="#060606"/>
</svg>
