<svg width="88" height="48" viewBox="0 0 88 48" fill="none" xmlns="http://www.w3.org/2000/svg">
<path d="M37.1554 37.9084H37.3384L36.7239 39.8073L36.1124 37.9084H36.2911V37.693H35.3614V37.9084H35.5822L35.8132 38.6353L35.437 39.8073L34.8269 37.9084H35.0026V37.693H34.0759V37.9084H34.2909L35.1217 40.475H35.498L35.9526 39.0602L36.4087 40.475H36.7835L37.61 37.9084H37.8686V37.693H37.1554V37.9084Z" fill="#E21E24"/>
<path d="M39.1512 37.9084H39.311V38.9749H38.6123V37.9084H38.7721V37.693H37.9572V37.9084H38.1141V40.2597H37.9572V40.475H38.7721V40.2597H38.6123V39.1902H39.311V40.2597H39.1512V40.475H39.9705V40.2597H39.8107V37.9084H39.9705V37.693H39.1512V37.9084Z" fill="#E21E24"/>
<path d="M41.6191 37.8361C41.4564 37.6945 41.2603 37.6222 41.0323 37.6222C40.8042 37.6222 40.6038 37.693 40.4382 37.8361C40.3568 37.9084 40.2958 37.9864 40.2552 38.0673C40.2145 38.1483 40.1942 38.2407 40.1942 38.3405V39.8232C40.1942 40.0212 40.2755 40.1903 40.4382 40.3319C40.5224 40.4042 40.6139 40.4576 40.7113 40.4923C40.8086 40.527 40.9161 40.5443 41.0337 40.5443C41.2633 40.5443 41.4593 40.4735 41.6206 40.3334C41.7876 40.1917 41.8719 40.0226 41.8719 39.8247V38.3419C41.8719 38.2422 41.8515 38.1511 41.8094 38.0688C41.7673 37.9864 41.7048 37.9098 41.6206 37.8375L41.6191 37.8361ZM41.3795 40.0299C41.3795 40.0703 41.3707 40.1079 41.3519 40.144C41.333 40.1802 41.3083 40.2105 41.2763 40.2365C41.2444 40.2625 41.2081 40.2842 41.1659 40.3001C41.1238 40.316 41.0788 40.3232 41.0323 40.3232C40.9858 40.3232 40.9393 40.316 40.8972 40.3001C40.8551 40.2842 40.8188 40.264 40.7868 40.2365C40.7548 40.2091 40.7302 40.1787 40.7127 40.144C40.6938 40.1079 40.6851 40.0703 40.6851 40.0299V38.1338C40.6851 38.0933 40.6938 38.0558 40.7127 38.0196C40.7302 37.9835 40.7563 37.9532 40.7868 37.9257C40.8173 37.8982 40.8551 37.8766 40.8972 37.8621C40.9393 37.8477 40.9844 37.839 41.0323 37.839C41.0802 37.839 41.1238 37.8462 41.1659 37.8621C41.2081 37.878 41.2444 37.8982 41.2763 37.9257C41.3068 37.9532 41.333 37.9835 41.3519 38.0196C41.3707 38.0558 41.3795 38.0933 41.3795 38.1338V40.0299Z" fill="#E21E24"/>
<path d="M43.5787 40.2597H42.8044V37.9084H42.9613V37.693H42.1537V37.9084H42.3135V40.2597H42.1537V40.475H43.8314V40.1253H43.5787V40.2597Z" fill="#E21E24"/>
<path d="M44.0188 37.9084H44.1786V40.2597H44.0188V40.475H45.8636V40.1253H45.6123V40.2597H44.6739V39.1902H45.2128V39.3261H45.467V38.839H45.2128V38.9749H44.6739V37.9084H45.6123V38.0442H45.8636V37.693H44.0188V37.9084Z" fill="#E21E24"/>
<path d="M47.672 37.8245C47.595 37.7566 47.5079 37.7046 47.4091 37.6728C47.3103 37.6396 47.2029 37.6237 47.0896 37.6237C46.9762 37.6237 46.8658 37.641 46.77 37.6757C46.6741 37.7104 46.584 37.7638 46.4983 37.8361C46.3357 37.9792 46.2543 38.1483 46.2543 38.3448C46.2543 38.5312 46.3284 38.6931 46.478 38.8304L47.5006 39.7668C47.5326 39.7958 47.5573 39.8275 47.5733 39.8622C47.5892 39.8969 47.5965 39.933 47.5965 39.9706C47.5965 40.0703 47.5442 40.1556 47.4411 40.225C47.3859 40.2611 47.3292 40.2871 47.2711 40.3016C47.213 40.316 47.152 40.3232 47.0896 40.3232C47.0097 40.3232 46.9341 40.3117 46.8644 40.2886C46.7947 40.2654 46.7322 40.2293 46.6785 40.1802H46.6828C46.6233 40.1281 46.5782 40.0703 46.5506 40.0053C46.5216 39.9403 46.5071 39.868 46.5042 39.7885H46.2529V40.475H46.5042V40.3435C46.5826 40.41 46.6698 40.4591 46.7656 40.4923C46.8615 40.5256 46.9704 40.5429 47.091 40.5429C47.3191 40.5429 47.5137 40.4706 47.6778 40.3276C47.7621 40.2553 47.8246 40.1773 47.8652 40.0935C47.9059 40.0096 47.9262 39.92 47.9262 39.8232C47.9262 39.7264 47.9073 39.6397 47.871 39.5587C47.8347 39.4778 47.7795 39.4027 47.7083 39.3347L46.6799 38.3983C46.6494 38.3694 46.6262 38.3376 46.6102 38.3029C46.5928 38.2682 46.5855 38.2321 46.5855 38.1945C46.5855 38.0933 46.6392 38.0081 46.7453 37.9358C46.7976 37.9026 46.8528 37.878 46.9094 37.8636C46.9675 37.8491 47.0285 37.8419 47.091 37.8419C47.2479 37.8419 47.3844 37.891 47.4992 37.9893C47.6125 38.0904 47.6706 38.2205 47.6749 38.3795H47.9306V37.6901H47.6749V37.826L47.672 37.8245Z" fill="#E21E24"/>
<path d="M49.556 37.693H49.1856L48.3707 40.2597H48.1151V40.475H48.821V40.2597H48.6424L48.7905 39.8001H49.7056L49.8538 40.2597H49.6679V40.475H50.5859V40.2597H50.3709L49.556 37.693ZM48.8544 39.5848L49.2452 38.3607L49.6374 39.5848H48.8544Z" fill="#E21E24"/>
<path d="M52.0966 40.2597H51.3224V37.9084H51.4778V37.693H50.6716V37.9084H50.8314V40.2597H50.6716V40.475H52.3479V40.1253H52.0966V40.2597Z" fill="#E21E24"/>
<path d="M54.3815 38.0442V37.693H52.5353V37.9084H52.6965V40.2597H52.5353V40.475H54.3815V40.1253H54.1287V40.2597H53.1918V39.1902H53.7293V39.3261H53.9849V38.839H53.7293V38.9749H53.1918V37.9084H54.1287V38.0442H54.3815Z" fill="#E21E24"/>
<path d="M47.5718 3.72134C47.5471 3.58116 47.3307 3.44676 47.4745 3.25744C47.9248 3.04934 47.9626 3.87309 47.9596 4.15923C48.1586 3.95691 48.4128 3.6144 48.7063 3.55226C48.8878 3.51324 48.9634 3.64908 48.8908 3.8095C48.8428 3.91644 48.2705 4.09853 48.2763 4.37023C49.755 3.50168 50.5496 4.80378 50.0877 6.18825C49.8916 6.77499 49.495 7.18398 49.2902 7.70424C49.2045 7.92391 49.1871 8.39503 48.9198 8.4196C45.6689 7.88055 42.3367 7.90078 39.0844 8.4196C39.0161 8.3907 38.929 8.36613 38.8897 8.29821C38.8258 8.18693 38.7808 7.82853 38.7024 7.64499C38.4191 6.97298 38.0051 6.73597 37.8439 5.90934C37.5781 4.54076 38.3886 3.58694 39.7279 4.36878C39.754 4.34277 39.5754 4.13611 39.5492 4.11009C39.3676 3.94245 38.8404 3.83551 39.1759 3.5537C39.5681 3.54503 39.7976 3.91789 40.046 4.15779C39.9922 3.93956 40.1114 3.05656 40.4687 3.22998C40.6924 3.33837 40.4919 3.55081 40.4513 3.66787C40.3975 3.8225 40.3917 4.00749 40.4033 4.17079C40.4062 4.21415 40.4237 4.38612 40.4687 4.40202C40.6561 3.12304 41.8675 1.88886 43.14 2.88314L43.5656 3.28201C43.432 2.90048 43.2402 2.54786 42.909 2.30796C42.787 2.21981 42.5081 2.18946 42.6548 1.93944C42.7623 1.7588 42.9482 1.88308 43.0833 1.95968C43.4029 2.14177 43.5482 2.42358 43.7239 2.72273C43.7501 2.76897 43.7181 2.81088 43.8111 2.7921C43.7791 2.46693 43.6891 2.05506 43.5089 1.78048C43.3753 1.57671 43.002 1.40618 43.4131 1.1894C43.5612 1.17639 43.965 1.67353 43.9534 1.84695C44.0362 1.8643 44.0101 1.83539 44.0319 1.80215C44.1219 1.66342 44.5301 0.855565 44.7364 1.33247C44.8221 1.52902 44.5446 1.65475 44.4517 1.80071C44.2919 2.04783 44.2047 2.50162 44.2004 2.7921C44.3573 2.59844 44.4459 2.36577 44.6231 2.18079C44.7538 2.04494 45.2143 1.66775 45.3435 1.9539C45.4583 2.20825 45.1605 2.2516 45.0124 2.35854C44.7465 2.54931 44.5185 2.96841 44.4473 3.28346C44.9281 2.72273 45.5643 2.32531 46.3211 2.62735C47.0489 2.91783 47.2886 3.61151 47.5079 4.28207C47.5224 4.32832 47.5079 4.3919 47.5791 4.40346C47.5529 4.1968 47.6139 3.91644 47.5791 3.72134H47.5718ZM43.3143 3.84274C43.3927 3.77626 42.8713 3.26756 42.7986 3.21842C41.9038 2.6129 41.0643 3.54792 40.9582 4.40202C41.5073 4.17513 42.0476 4.72285 41.9271 5.27924C41.8617 5.58417 41.5436 5.67811 41.4884 5.99749C41.4652 6.13334 41.5421 6.4296 41.2996 6.39058C41.012 6.34433 41.1572 5.80384 41.2545 5.62464C41.3417 5.46422 41.5451 5.3645 41.5828 5.18097C41.6889 4.66938 40.9989 4.50607 40.8943 5.022C40.5951 6.5033 42.3382 8.76644 43.4261 6.9094C43.6644 6.50186 43.7966 6.07119 43.2576 5.83997C42.5009 5.51625 42.0331 6.36746 42.5982 6.70563C42.9105 6.89205 43.0354 6.60302 43.1836 6.64493C43.3855 6.70273 43.2954 6.89494 43.1502 6.98454C42.5212 7.37185 41.6671 6.50186 42.174 5.80384C42.5575 5.2749 43.3506 5.36595 43.7719 5.80095C43.8024 5.51625 43.7719 5.61452 43.6484 5.52347C43.493 5.40931 43.6716 5.19108 43.6934 5.03934C43.7385 4.72285 43.6397 4.14622 43.2097 4.20548C42.7347 4.26906 42.819 4.9006 43.2213 4.78065C43.2823 4.76187 43.4479 4.52341 43.5656 4.70551C43.7719 5.02489 43.2402 5.23299 42.9148 5.09859C42.1958 4.80089 42.5793 3.7488 43.3158 3.84274H43.3143ZM47.0445 4.40346C46.8935 3.49445 46.0234 2.56231 45.0923 3.2849C44.9877 3.36583 44.6957 3.68088 44.6521 3.79216C44.6173 3.88031 44.8177 3.83551 44.8773 3.84707C45.5121 3.97714 45.7038 4.82256 45.1111 5.08848C44.7959 5.2301 44.3297 5.13617 44.4226 4.71851C44.6289 4.51763 44.703 4.77921 44.7465 4.78933C45.3189 4.93384 45.1533 4.02772 44.6071 4.23582C44.3079 4.34999 44.2686 4.76476 44.3093 5.04079C44.3413 5.25323 44.578 5.49457 44.2352 5.56249L44.2309 5.80239C44.7378 5.22432 45.9202 5.35294 45.9899 6.2056C46.0321 6.72152 45.483 7.22444 44.9702 7.04524C44.8381 6.999 44.6812 6.89783 44.7291 6.73886C44.9862 6.47873 45.0559 6.9542 45.4452 6.67961C45.9812 6.30098 45.4569 5.56394 44.7698 5.83274C44.1975 6.05674 44.3645 6.56689 44.6245 6.97009C45.7575 8.73031 47.4193 6.45127 47.1012 5.03211C46.9559 4.38323 46.1091 4.81534 46.5187 5.36595C46.5753 5.44254 46.6654 5.49602 46.7235 5.58128C46.86 5.78505 47.0097 6.33566 46.6785 6.39925C46.4591 6.33277 46.5623 6.2186 46.5448 6.10877C46.4795 5.68967 46.2325 5.67666 46.1134 5.38329C45.8766 4.79511 46.4388 4.16068 47.046 4.40346H47.0445ZM40.1927 6.52787C40.1651 6.50186 40.1549 6.42526 40.1143 6.37902C39.8325 6.06252 39.6291 6.12178 39.3415 5.92234C39.0292 5.70412 38.8752 5.19975 39.1454 4.89193C39.189 4.84135 39.4199 4.71707 39.3938 4.68238C39.0089 4.4685 38.5382 4.48873 38.3363 4.92517C37.9586 5.74603 38.6021 7.05247 39.3153 7.52359C40.2087 8.11467 40.7636 7.60308 40.6779 6.62325C40.6343 6.13912 40.3365 5.53793 39.9922 5.20554C39.6247 4.85147 39.1599 5.14917 39.4316 5.55382C39.5783 5.77204 39.9443 5.79083 40.168 5.97581C40.2566 6.04952 40.5036 6.33711 40.4948 6.44116C40.4832 6.58857 40.2813 6.6088 40.1942 6.52498L40.1927 6.52787ZM48.9721 4.55232C48.9082 4.55954 48.593 4.64914 48.5944 4.70117C49.1043 4.92228 49.1086 5.56972 48.7005 5.89199C48.4361 6.1001 48.1848 6.05674 47.9262 6.34578C47.8289 6.45417 47.8507 6.61458 47.6285 6.57411C47.3801 6.52931 47.6749 6.14201 47.7694 6.04807C47.9974 5.82118 48.4506 5.7547 48.5683 5.58417C48.8617 5.15929 48.3751 4.83413 47.9974 5.22577C47.6197 5.61741 47.3539 6.19837 47.3292 6.73019C47.2798 7.77505 48.0352 8.07565 48.8225 7.447C49.4151 6.97443 49.9192 5.91801 49.7463 5.16507C49.6563 4.77054 49.4079 4.50029 48.9735 4.55232H48.9721Z" fill="#E31E24"/>
<path d="M48.5843 9.85321C48.5232 9.91391 48.2807 9.9009 48.1862 9.89801C47.7258 9.88356 47.213 9.78529 46.7453 9.75783C44.3747 9.61476 41.9997 9.69135 39.6364 9.89946C39.5013 9.89946 39.3807 9.73182 39.4882 9.62632C39.5361 9.58007 40.5021 9.49047 40.659 9.47747C42.986 9.28526 45.9115 9.23323 48.2197 9.55117C48.3054 9.56273 48.545 9.58441 48.5944 9.63355C48.6482 9.68702 48.6336 9.80408 48.5843 9.85321Z" fill="#E31E24"/>
<path d="M48.9445 8.63638L48.6612 9.37052L47.0794 9.19566C47.2944 8.9601 47.3641 8.65227 47.1491 8.39214L48.943 8.63638H48.9445Z" fill="#E31E24"/>
<path d="M40.8522 8.42683C40.6517 8.68985 40.7505 8.97455 40.9582 9.19566L39.433 9.3315L39.1294 8.65372L40.8536 8.42683H40.8522Z" fill="#E31E24"/>
<path d="M46.2006 8.32277C45.9769 8.55545 45.8636 8.83436 46.0597 9.12629L44.4764 9.09161C44.7262 8.83292 44.7451 8.55111 44.5461 8.25196L46.1991 8.32133L46.2006 8.32277Z" fill="#E31E24"/>
<path d="M43.4915 8.25196C43.2983 8.54244 43.3259 8.83581 43.5612 9.09161L41.9779 9.12629C42.1145 8.89362 42.0927 8.63638 41.9242 8.42827C41.8791 8.37191 41.8109 8.37769 41.8022 8.32277L43.4915 8.25341V8.25196Z" fill="#E31E24"/>
<path d="M57.3186 45.7585L56.7536 45.0793C56.4282 44.7455 55.8341 44.7802 55.5247 44.4463C55.0323 43.9159 55.7179 43.3075 56.1769 43.7628C56.4761 44.0605 56.4035 44.4203 56.5357 44.7007C56.572 44.7787 56.7681 44.8799 56.8451 44.9521C57.0499 45.1472 57.2503 45.4854 57.3186 45.7571V45.7585Z" fill="#E31E24"/>
<path d="M31.0008 45.7932C31.0908 45.5605 31.2158 45.2903 31.3726 45.0966C31.4729 44.9724 31.7692 44.7802 31.8026 44.7195C31.942 44.4723 31.8505 44.1125 32.1425 43.7989C32.5943 43.3119 33.2407 43.8451 32.9007 44.3423C32.616 44.757 32.0495 44.7209 31.6719 45.0099C31.4075 45.2123 31.2245 45.5475 31.0008 45.7947V45.7932Z" fill="#E31E24"/>
<path d="M56.527 43.1702C56.5066 43.176 56.264 43.3754 56.2045 43.4087C55.8835 43.5835 55.3489 43.689 55.2313 43.2338C55.1136 42.7786 55.545 42.6413 55.9256 42.6847C56.2669 42.7222 56.5211 42.9722 56.8247 43.0503C57.0513 43.1081 57.3331 43.0936 57.5656 43.1717C57.535 43.2728 57.3346 43.1717 57.3012 43.1717C57.1356 43.1717 56.6432 43.1384 56.527 43.1717V43.1702Z" fill="#E31E24"/>
<path d="M31.0182 43.1702C30.9862 43.1717 30.8119 43.2699 30.7902 43.1702C31.0226 43.0936 31.3044 43.1081 31.531 43.0488C31.8752 42.9592 32.096 42.6962 32.5303 42.6774C33.4251 42.6413 33.306 43.7917 32.3662 43.5084C32.2064 43.4607 31.8273 43.1688 31.7939 43.1688C31.5411 43.1688 31.2695 43.1543 31.0197 43.1688L31.0182 43.1702Z" fill="#E31E24"/>
<path d="M56.6504 42.6456C56.6591 42.7107 56.5793 42.6716 56.5429 42.6644C56.2626 42.611 55.9808 42.4737 55.6845 42.4693C55.4332 42.6153 55.2095 42.8797 54.9059 42.9217C54.0256 43.0445 54.1563 41.9823 54.9436 42.121L56.6504 42.6456Z" fill="#E31E24"/>
<path d="M44.0537 43.3437C43.4784 43.1023 42.9061 42.7844 42.2728 42.7179C42.2118 42.7121 42.1464 42.7526 42.0709 42.7482C41.9532 42.741 41.8152 42.663 41.6961 42.6442C41.6438 42.5748 41.8995 42.4679 41.9431 42.4534C42.0709 42.4115 42.1944 42.3884 42.3294 42.4C42.4311 42.3046 41.9242 41.8884 41.9082 41.7699C41.9707 41.7121 42.7652 42.2959 42.8698 42.3711C43.2765 42.6659 43.7079 42.9852 44.0551 43.3437H44.0537Z" fill="#E31E24"/>
<path d="M31.7038 42.6789L33.3786 42.1239C33.6082 42.0907 33.9786 42.1413 34.0236 42.4187C34.1078 42.9376 33.6939 43.0113 33.2871 42.8711C33.0504 42.7887 32.879 42.5951 32.6683 42.4693L31.7024 42.6803L31.7038 42.6789Z" fill="#E31E24"/>
<path d="M46.4461 41.7699C46.3298 42.0069 46.0539 42.1268 45.9885 42.3985C46.0626 42.4028 46.141 42.3884 46.2136 42.4014C46.2645 42.4101 46.7424 42.5517 46.6567 42.6427C46.5303 42.6485 46.4068 42.7396 46.2819 42.7468C46.2064 42.7511 46.1396 42.7107 46.08 42.7164C45.4568 42.7829 44.9092 43.0951 44.334 43.3075C44.5955 43.0214 44.9252 42.7786 45.2375 42.5445C45.5222 42.3306 45.8636 42.0733 46.1672 41.8941C46.2151 41.8652 46.4083 41.7352 46.4461 41.7684V41.7699Z" fill="#E31E24"/>
<path d="M32.9356 44.9883C32.9865 44.8076 33.0852 44.6313 33.107 44.442C33.1506 44.072 33.0286 43.718 33.1448 43.3595C33.3772 42.6413 34.3417 43.1948 33.7113 43.8524C33.6096 43.9579 33.4193 44.0388 33.3409 44.1501C33.1884 44.3683 33.2043 44.8148 32.9356 44.9883Z" fill="#E31E24"/>
<path d="M55.4186 45.0244L55.2124 44.7223C55.1223 44.5735 55.1005 44.283 55.0134 44.1515C54.948 44.0532 54.6996 43.9347 54.5921 43.8003C54.0561 43.1355 54.9596 42.715 55.1906 43.3104C55.3242 43.6544 55.1833 44.1385 55.2472 44.5142C55.2777 44.6963 55.3954 44.8452 55.4201 45.0244H55.4186Z" fill="#E31E24"/>
<path d="M32.725 41.8392C32.7163 41.7785 32.8049 41.806 32.847 41.8045C32.9371 41.8002 33.0387 41.7988 33.1288 41.8045C33.306 41.8161 33.6474 41.9144 33.7941 41.8985C33.8958 41.8869 34.1471 41.7308 34.2996 41.7077C34.6206 41.6571 35.0695 41.7135 35.0113 42.134C34.9474 42.5936 34.4274 42.4607 34.1456 42.3002C33.9989 42.2179 33.8493 42.0444 33.72 41.9895C33.4658 41.8797 33.0068 41.8609 32.7264 41.8392H32.725Z" fill="#E31E24"/>
<path d="M55.6293 41.806L54.6604 41.9794C54.4047 42.1225 54.2159 42.3595 53.9196 42.4317C53.2267 42.6008 53.1715 41.7814 53.6436 41.7034C54.1055 41.6268 54.2624 41.871 54.5616 41.9014C54.842 41.9288 55.3126 41.7308 55.6307 41.8074L55.6293 41.806Z" fill="#E31E24"/>
<path d="M33.7084 44.5692C33.643 44.5764 33.6779 44.4969 33.6895 44.4637C33.7825 44.2093 33.9742 43.9463 34.0163 43.6688C34.0643 43.3596 33.9103 43.1038 34.0526 42.7598C34.2299 42.3335 34.8094 42.4505 34.7615 42.9029C34.7295 43.202 34.362 43.4174 34.15 43.5908L33.7069 44.5677L33.7084 44.5692Z" fill="#E31E24"/>
<path d="M54.6444 44.4983C54.4091 44.2946 54.3568 43.7902 54.1883 43.5792C54.0416 43.3971 53.722 43.3393 53.616 43.0199C53.4402 42.4881 54.1084 42.2843 54.2943 42.7656C54.4381 43.137 54.274 43.3393 54.3089 43.6255C54.3394 43.8755 54.5907 44.2382 54.6444 44.4983Z" fill="#E31E24"/>
<path d="M33.8159 41.4895C33.8072 41.4288 33.8958 41.4563 33.9379 41.4548C34.028 41.4505 34.1296 41.449 34.2197 41.4548C34.41 41.4678 34.7223 41.5646 34.8864 41.5574C35.1537 41.5444 35.2917 41.3609 35.6897 41.4288C36.1502 41.5054 36.1603 42.2251 35.4951 42.1124C35.1653 42.056 35.0215 41.7337 34.8094 41.6398C34.5669 41.5329 34.0875 41.5184 33.8159 41.4909V41.4895Z" fill="#E31E24"/>
<path d="M54.5384 41.4548L53.5448 41.6383C53.2499 41.8725 53.0132 42.1846 52.5876 42.1167C52.2433 42.0618 52.2462 41.4852 52.6587 41.4216C53.0219 41.3652 53.2122 41.5444 53.4649 41.5531C53.7758 41.5646 54.2014 41.3854 54.5384 41.4548Z" fill="#E31E24"/>
<path d="M44.0435 2.23001e-05C44.106 -0.00286805 44.2207 0.27605 44.2469 0.345419C44.2991 0.48271 44.3732 0.708157 44.3732 0.852674C44.3732 1.38016 43.6382 1.47265 43.6658 0.781861C43.6731 0.588208 43.8169 0.0115837 44.0435 0.00146747V2.23001e-05Z" fill="#E31E24"/>
<path d="M34.5189 43.8336C34.6017 43.5518 34.8007 43.2873 34.8545 42.9954C34.8966 42.767 34.8443 42.6066 34.975 42.3797C35.2801 41.8537 35.9642 42.3826 35.4311 42.8682C35.2917 42.9954 34.9692 43.0907 34.8893 43.1688C34.763 43.2916 34.6889 43.7107 34.5189 43.8321V43.8336Z" fill="#E31E24"/>
<path d="M53.7641 43.7295C53.7133 43.7107 53.6639 43.6038 53.6392 43.5561C53.5942 43.4679 53.5274 43.2324 53.4722 43.1789C53.4213 43.1283 53.1744 43.0459 53.0829 42.9881C52.82 42.8205 52.5004 42.4303 52.8853 42.2106C53.2122 42.0242 53.4257 42.3884 53.4707 42.6716C53.4911 42.793 53.4707 42.9072 53.4954 43.0315C53.5405 43.2541 53.7235 43.4997 53.7612 43.7295H53.7641Z" fill="#E31E24"/>
<path d="M52.499 41.2453C52.4685 41.5979 51.7465 42.1528 51.5068 41.7251C51.3122 41.3782 51.6739 41.173 51.9891 41.173C52.1547 41.173 52.3319 41.2438 52.499 41.2467V41.2453Z" fill="#E31E24"/>
<path d="M36.8765 41.3854C36.859 41.2684 36.7617 41.1918 36.7704 41.0704C37.0043 41.069 37.3384 41.0603 37.5432 41.1947C37.8584 41.4013 37.6972 41.8306 37.318 41.7684C37.1118 41.7337 37.013 41.5097 36.8765 41.3854C37.0028 42.267 36.0107 41.78 35.8219 41.2973C36.1778 41.1354 36.5743 41.1094 36.8765 41.3854Z" fill="#E31E24"/>
<path d="M53.2717 43.4145C53.1671 43.3754 53.0379 43.2627 52.9551 43.1876C52.8345 43.0806 52.6282 42.8147 52.5164 42.7482C52.3479 42.6471 52.0864 42.6471 51.9208 42.4664C51.5359 42.0488 52.2593 41.5415 52.5338 42.3118C52.5847 42.4549 52.5832 42.65 52.6428 42.7641C52.743 42.9563 53.1512 43.2035 53.2717 43.4159V43.4145Z" fill="#E31E24"/>
<path d="M35.1174 43.3798C35.2496 43.1731 35.5517 42.9968 35.6737 42.7974C35.8117 42.5748 35.7449 42.3104 35.9599 42.0676C36.3419 41.6355 36.8416 42.2251 36.2664 42.582C35.9904 42.754 35.6781 42.7714 35.4689 43.1182L35.1159 43.3798H35.1174Z" fill="#E31E24"/>
<path d="M51.5838 41.0704C51.5678 41.3912 50.9563 42.0936 50.6905 41.6268C50.4247 41.16 51.2701 41.0169 51.5838 41.0704Z" fill="#E31E24"/>
<path d="M35.8204 43.0286C36.0136 42.8263 36.3201 42.715 36.4886 42.4867C36.6397 42.2814 36.6339 42.0242 36.8779 41.8595C37.2701 41.595 37.565 42.1022 37.1902 42.345C37.0115 42.4607 36.8024 42.4274 36.6382 42.4953C36.4116 42.5893 36.1008 42.9722 35.8204 43.0286Z" fill="#E31E24"/>
<path d="M52.4626 42.9939C52.3493 42.978 52.2491 42.8884 52.1561 42.8277C52.0443 42.7555 51.8032 42.5329 51.7146 42.4968C51.6143 42.4549 51.4589 42.4563 51.3369 42.4173C50.5714 42.1788 51.2468 41.3219 51.6826 42.108C51.7436 42.2193 51.7785 42.4159 51.8497 42.5026C51.9818 42.6673 52.3276 42.8118 52.4641 42.9939H52.4626Z" fill="#E31E24"/>
<path d="M38.0022 42.2945C38.2622 42.1817 38.223 42.0806 38.3886 41.9259C38.8767 41.4693 39.1715 42.1326 38.743 42.2424C38.5803 42.2843 38.4104 42.2323 38.2477 42.2757L37.3849 42.7136C37.2933 42.7164 37.3021 42.7092 37.3776 42.6716C37.5693 42.5748 37.8599 42.4491 38.0022 42.2959C37.7712 42.3956 37.61 42.3653 37.4023 42.4173C37.1205 42.4896 36.7762 42.8234 36.4538 42.8552L37.3311 42.3465C37.4096 42.2106 37.4575 42.0314 37.5635 41.9129C37.8787 41.5603 38.3755 41.8913 38.0008 42.2959L38.0022 42.2945Z" fill="#E31E24"/>
<path d="M50.7384 41.1051C50.6106 41.3594 50.4247 41.7728 50.0862 41.7713C49.8233 41.7699 49.7289 41.4129 49.9105 41.2453C49.941 41.2164 50.1676 41.1065 50.1923 41.1065H50.737L50.7384 41.1051Z" fill="#E31E24"/>
<path d="M38.1605 41.1051C38.4089 41.147 38.653 41.3999 38.4598 41.6485C38.1489 42.0473 37.7088 41.3898 37.6144 41.1051C37.7814 41.1239 38.0008 41.0791 38.1591 41.1051H38.1605Z" fill="#E31E24"/>
<path d="M51.7247 42.7844C51.4575 42.7685 51.1873 42.4765 50.952 42.4159C50.7602 42.3667 50.6004 42.4173 50.3985 42.3017C49.9381 42.0372 50.4131 41.4476 50.8256 41.9823C50.9142 42.0979 50.9505 42.267 51.0246 42.345C51.1858 42.5127 51.5562 42.6095 51.7262 42.7844H51.7247Z" fill="#E31E24"/>
<path d="M46.8339 42.2251C47.0285 42.2251 47.2028 42.3465 47.3263 42.4881C47.184 42.5951 46.9704 42.6514 46.7976 42.5951C46.6247 42.5387 46.7249 42.3291 46.693 42.2973C46.6828 42.2872 46.523 42.3132 46.4664 42.1904C46.3458 41.9245 46.7409 41.7381 46.9399 41.6658C46.9661 41.8681 46.9007 42.0415 46.8353 42.2251H46.8339Z" fill="#E31E24"/>
<path d="M41.6264 42.2959C41.8109 42.715 41.2473 42.663 41.0294 42.4881C41.1572 42.345 41.3155 42.2164 41.5218 42.2251C41.4347 42.0415 41.3954 41.871 41.4172 41.6658C41.7455 41.7554 42.2365 42.2164 41.6278 42.2959H41.6264Z" fill="#E31E24"/>
<path d="M38.0371 42.6789L39.5507 42.3465C39.7526 42.2598 39.9835 41.7988 40.2537 41.9967C40.4687 42.1557 40.306 42.3884 40.0794 42.4187C39.9458 42.4375 39.8281 42.3869 39.677 42.4014C39.4548 42.4231 39.1599 42.5214 38.9231 42.5618C38.6297 42.611 38.3334 42.6558 38.0371 42.6774V42.6789Z" fill="#E31E24"/>
<path d="M48.5581 2.68949C48.5494 2.94529 48.6351 3.18952 48.516 3.43375C48.4128 3.64619 48.0802 3.68955 48.0381 3.39762C48.0148 3.23287 48.1267 3.09125 48.224 2.96985C48.2545 2.93083 48.5232 2.65191 48.5581 2.69093V2.68949Z" fill="#E31E24"/>
<path d="M50.1051 42.6095C50.1051 42.6774 49.9598 42.6427 49.9163 42.6399C49.495 42.6037 48.9968 42.4173 48.6089 42.3985C48.4956 42.3927 48.4056 42.4346 48.3039 42.4274C47.8405 42.3942 47.9756 41.9274 48.2502 41.952C48.4971 41.9736 48.6133 42.2728 48.8297 42.358C49.1856 42.4997 49.7245 42.5401 50.1066 42.611L50.1051 42.6095Z" fill="#E31E24"/>
<path d="M51.0202 42.6803C51.0275 42.7453 50.9461 42.7107 50.9142 42.6991C50.49 42.5459 50.1603 42.1673 49.6693 42.2583C49.2553 42.1962 49.3352 41.6282 49.7986 41.8147C50.0034 41.897 50.0572 42.1066 50.2155 42.2395C50.4174 42.4086 50.7776 42.5719 51.0217 42.6803H51.0202Z" fill="#E31E24"/>
<path d="M39.4809 2.72417C39.5449 2.67648 39.8383 3.05223 39.8746 3.11871C40.1433 3.61151 39.6102 3.7777 39.4519 3.36294C39.3734 3.15773 39.3923 2.92216 39.4795 2.72273L39.4809 2.72417Z" fill="#E31E24"/>
<path d="M49.7536 41.1398C49.7696 41.4086 49.4253 42.0546 49.1203 41.7178C48.8152 41.3811 49.4936 41.1253 49.7536 41.1398Z" fill="#E31E24"/>
<path d="M38.6007 41.1398C38.8592 41.1253 39.5202 41.4013 39.234 41.7178C38.9304 42.0531 38.5745 41.4143 38.6007 41.1398Z" fill="#E31E24"/>
<path d="M43.9389 8.36324C44.4662 8.24618 44.4604 9.03813 43.9563 8.9283C43.5917 8.84882 43.6382 8.42972 43.9389 8.36324Z" fill="#E31E24"/>
<path d="M41.2996 8.50342C41.8109 8.39214 41.9285 9.19132 41.2996 9.04825C41.0308 8.98755 41.0047 8.56701 41.2996 8.50342Z" fill="#E31E24"/>
<path d="M46.8557 8.97455C46.5318 9.29827 46.0248 8.78957 46.449 8.55256C46.7918 8.36035 47.1084 8.72309 46.8557 8.97455Z" fill="#E31E24"/>
<path d="M39.3037 41.2453C39.5463 41.2308 40.2334 41.4649 39.937 41.7886C39.6422 42.1095 39.3313 41.5011 39.3037 41.2453Z" fill="#E31E24"/>
<path d="M40.0431 41.3508C40.2929 41.3421 40.9524 41.6557 40.6241 41.9462C40.2958 42.2366 40.0532 41.595 40.0431 41.3508Z" fill="#E31E24"/>
<path d="M48.2763 41.3508C48.3257 41.6123 48.0352 42.2179 47.7301 41.9462C47.4077 41.6586 48.0294 41.358 48.2763 41.3508Z" fill="#E31E24"/>
<path d="M49.0505 41.2453C49.0128 41.4823 48.7077 42.1095 48.4172 41.7886C48.1267 41.4678 48.805 41.2308 49.0505 41.2453Z" fill="#E31E24"/>
<path d="M49.4021 42.2945C49.2016 42.3479 48.5784 42.3609 48.6772 42.0141C48.8007 41.582 49.3309 42.0531 49.4021 42.2945Z" fill="#E31E24"/>
<path d="M38.9522 42.2945C39.0161 42.043 39.5492 41.5979 39.677 42.0141C39.7773 42.3421 39.1425 42.3638 38.9522 42.2945Z" fill="#E31E24"/>
<path d="M40.7824 41.5603C41.0178 41.5213 41.5407 41.8725 41.2734 42.1008C40.9727 42.358 40.7476 41.7944 40.7824 41.5603Z" fill="#E31E24"/>
<path d="M47.5718 41.5603C47.5849 41.8002 47.4004 42.3046 47.0954 42.1225C46.7802 41.9332 47.3249 41.5025 47.5718 41.5603Z" fill="#E31E24"/>
<path d="M40.2886 42.4346C40.3772 42.2352 40.9204 41.8913 40.9873 42.2511C41.0541 42.6109 40.4832 42.5026 40.2886 42.4346Z" fill="#E31E24"/>
<path d="M48.0294 42.4346C47.8173 42.5372 47.2537 42.5835 47.367 42.215C47.4701 41.8826 48.0976 42.3465 48.0294 42.4346Z" fill="#E31E24"/>
<path d="M88 22.8063C87.9317 22.8511 87.9012 22.9479 87.8417 23.0158C87.1982 23.7558 86.6375 23.2023 85.8909 23.0664C85.3273 22.9638 84.3686 23.1979 83.8602 23.4653C83.2486 23.7861 82.8477 24.3107 82.5296 24.9061C82.4817 24.6243 82.5586 24.2977 82.6821 24.0434C82.9436 23.5043 83.5043 23.3482 83.5943 22.6762C83.6321 22.3944 83.558 22.3713 83.5057 22.1516C83.4883 22.0765 83.5086 21.997 83.4897 21.9219C83.4215 21.6429 83.0656 21.3871 83.1861 21.0273C83.7643 20.7874 84.4092 20.7383 85.028 20.6718C85.4798 20.6226 85.9344 20.64 86.3833 20.5489C86.9905 20.4261 87.5497 20.1067 87.7908 19.5171C86.9295 19.8466 85.9591 19.8581 85.0469 19.796C85.8124 19.189 87.0137 18.8783 87.2287 17.8017C86.8321 18.1138 86.5213 18.3783 86.0419 18.5633C84.8348 19.0272 83.3459 18.939 82.303 19.744C82.2754 19.7657 82.2347 19.8379 82.1984 19.7801C82.5615 18.9058 83.3663 18.3479 84.0286 17.7164C84.2916 17.4649 84.5385 17.1961 84.8014 16.9461C85.3984 16.3767 86.5184 15.5992 86.5619 14.709C86.5794 14.3708 86.3019 14.2624 86.3586 13.8419C86.4138 13.4257 86.9018 12.7826 86.8801 12.4328C86.867 12.2262 86.2438 11.7999 86.0332 11.7334C86.4283 11.3808 87.0384 11.6727 87.4785 11.3865L87.9085 10.5541C87.9463 10.4689 87.9332 10.32 87.8794 10.2463C87.8359 10.1842 87.8286 10.2347 87.7908 10.2636C87.3798 10.5845 87.2054 10.9992 86.5823 10.6957C86.0564 10.44 86.023 10.1639 85.3127 10.1394C84.7898 10.122 84.5661 10.411 84.1855 10.7015C83.741 10.4385 83.3169 10.1206 82.9886 9.7217C82.8985 9.9009 82.5383 10.3648 82.5499 10.5411C82.5659 10.781 83.0627 10.9385 83.1469 11.1727C83.1135 11.2232 83.0787 11.2203 83.0264 11.2261C82.6095 11.2709 81.95 11.3938 81.6188 11.1192C81.3428 10.8908 81.4082 10.2318 81.3893 9.89512C81.1976 10.0078 81.1293 10.2376 81.0029 10.4038C80.9695 10.4486 80.8925 10.4689 80.846 10.5281C80.6194 10.8157 80.5396 11.203 80.5149 11.5629C80.4713 12.1756 80.817 12.5094 81.382 12.6858C81.5229 12.7291 81.8251 12.7537 81.9166 12.8187C81.9965 12.8751 82.2986 13.4213 82.4265 13.5702C82.595 13.7667 82.807 13.9141 83.0002 14.0832C83.1179 14.5688 82.5238 14.6353 82.4439 15.0385C82.4686 15.0631 82.6618 14.9185 82.701 14.8925C83.2573 14.5168 84.1608 13.8708 83.7759 13.102C83.7222 12.9936 83.6277 12.9444 83.6045 12.836C83.85 12.9054 84.2233 12.8996 84.4484 12.9936C84.8755 13.1713 84.938 14.0168 84.9409 14.4098L85.2575 14.2697C85.3084 14.6208 85.3418 14.7206 85.1457 15.0154C84.2669 16.3305 82.7954 17.4461 81.7757 18.6962C81.4402 19.1081 81.1017 19.533 80.8591 20.007C80.7633 20.0215 80.8054 19.9969 80.7894 19.955C80.7037 19.7382 80.5802 19.533 80.5425 19.3075C80.358 19.3408 80.0617 19.4752 79.8874 19.4824C79.8351 19.4838 79.8263 19.4824 79.7871 19.4477C79.713 19.3841 79.4472 18.8653 79.4007 18.7483C79.302 18.5011 79.2003 18.2121 79.2598 17.9447C79.5198 18.2121 79.7769 18.6991 80.1793 18.7454C80.5933 18.7931 80.9826 18.6196 81.3545 18.4693C81.3196 18.3711 81.1889 18.4101 81.1061 18.3841C80.8707 18.3089 80.6674 18.1124 80.5308 17.9072C80.2287 17.4519 80.066 16.8045 79.8074 16.3175C80.0006 16.2972 80.4538 15.9244 80.5265 15.7741C80.5904 15.6426 80.6746 15.0197 80.6863 14.8477C80.695 14.7148 80.6805 14.5789 80.6863 14.446C80.387 14.5197 80.1256 14.6888 79.8176 14.5226C79.7174 14.4691 79.2482 14.0168 79.1364 13.9055C78.9824 13.7508 78.6105 13.3664 78.5103 13.1988C78.4871 13.1612 78.4609 13.1323 78.4696 13.0832C78.8604 13.0022 79.177 12.7725 79.1349 12.3346C79.116 12.1395 78.6948 11.2319 78.5713 11.0758C78.5481 11.0469 78.1108 10.7608 78.06 10.742C77.9903 10.7145 77.9264 10.6929 77.8683 10.7622L78.0789 11.7392C77.8319 12.1366 77.2596 11.823 76.9212 12.0687C76.8921 11.7926 76.5566 11.2579 76.6103 11.0093C76.667 10.7478 77.0723 10.7882 77.2713 10.7203C77.3032 10.7088 77.3657 10.7131 77.341 10.6524C77.28 10.5035 76.7294 10.2131 76.5479 10.3171C76.4128 10.3952 75.9668 10.9385 75.8492 11.0917C75.7025 11.2839 75.5935 11.4964 75.441 11.6828C75.5296 11.2709 75.0648 10.3345 75.4076 10.0223C75.5558 9.8879 75.9116 9.97172 75.9334 9.68846C75.8826 9.63355 74.799 9.5584 74.6682 9.60175C74.4213 9.68557 73.9419 10.4082 73.7691 10.6322C73.4292 10.1957 73.1372 9.73037 72.8903 9.23468C72.5794 9.36474 72.806 9.60031 72.8336 9.81275C72.8859 10.216 72.6114 10.4645 72.3499 10.0844C72.2177 9.89079 72.1872 9.59886 72.132 9.37341C72.0652 9.30549 71.9911 9.59886 71.9635 9.64366C71.904 9.74049 71.1254 10.3735 71.0513 10.3836C70.938 10.3995 70.8668 10.2217 70.8625 10.1249C70.8581 10.0093 70.97 9.82575 70.7593 9.79251C70.7753 10.0671 70.6359 10.3301 70.4775 10.544C70.4194 10.622 70.2916 10.7001 70.2524 10.7752C70.1463 10.9776 70.171 11.3605 69.8718 11.4805C69.3489 11.6915 68.5253 11.0065 67.9805 11.0527C68.0372 11.3562 68.2435 11.5354 68.4381 11.7522L67.1715 11.7348C67.1148 11.7681 67.1671 11.8186 67.1918 11.8548C67.353 12.0889 67.6653 12.284 67.629 12.6265L66.971 12.2493C65.2395 11.7869 63.585 11.0166 61.7955 10.7796L61.6836 11.0513C63.1347 11.6857 64.5467 12.4097 66.0268 12.9777C66.3755 13.1121 66.6413 13.2118 66.9812 13.3578C67.215 13.4575 67.8193 13.6164 67.9268 13.852C67.9718 13.9503 67.9573 15.0775 67.9442 15.2683C67.8963 16.0039 67.6886 16.9794 67.3167 17.6196C67.1642 17.8826 66.9608 18.0777 66.788 18.3219C66.8258 18.6283 66.9129 19.705 67.1206 19.9015C67.6741 20.4247 68.0169 19.0012 68.4352 18.926C68.4831 19.2815 68.2798 19.5792 68.1897 19.9058C68.7591 19.6573 69.2879 20.2512 69.8791 20.2035C69.9081 20.7527 69.0075 21.0273 68.6008 21.2065C68.489 21.2556 68.3437 21.2701 68.2246 21.3221C67.8905 21.4681 67.7133 21.7817 67.3124 21.5649C66.6674 21.2166 65.9992 20.4232 65.8424 19.7035C65.7697 19.3755 65.8641 19.2945 65.623 19.0127C64.307 17.4779 62.1731 16.9071 60.6944 15.5168C60.5361 15.368 60.5433 15.1758 60.2383 15.2871V11.4733C57.4668 12.1655 54.6212 13.7436 51.6812 13.1424C50.9244 12.9878 50.1196 12.6077 49.6112 12.0166C49.2946 11.6496 49.1856 11.2377 48.991 10.807L39.0103 10.8417C38.759 11.4602 38.576 11.9039 38.0545 12.349C36.7167 13.4893 34.3344 13.3896 32.7163 13.0022L27.763 11.4733V15.2871C27.4565 15.1686 27.4361 15.3969 27.272 15.5515C25.8848 16.8522 23.9296 17.4187 22.5889 18.767C22.5351 18.822 22.2214 19.1905 22.2112 19.2309C22.1633 19.3986 22.1676 19.6486 22.1081 19.8625C21.9294 20.4969 21.2612 21.286 20.6671 21.5793C20.2822 21.7687 20.0963 21.4637 19.7767 21.3236C19.6576 21.2715 19.5138 21.2571 19.4005 21.2079C18.9197 20.9955 18.1556 20.8033 18.1237 20.1862C18.7105 20.2729 19.2523 19.6457 19.8116 19.9058C19.7215 19.5792 19.5181 19.2815 19.5661 18.926C19.9859 19.0402 20.1471 19.9333 20.5771 20.0041C20.9417 20.0648 21.0012 19.6313 21.0608 19.3812C21.1174 19.1471 21.2758 18.4332 21.1784 18.2482C21.1407 18.1745 21.0288 18.1052 20.9722 18.0329C20.3388 17.2034 20.1093 16.1599 20.057 15.1295C20.0411 14.8203 20.0164 14.2277 20.0541 13.9387C20.0963 13.6294 20.7441 13.4763 20.994 13.3693C21.7537 13.0427 22.5453 12.7566 23.3166 12.4256C24.3305 11.9892 25.3183 11.492 26.322 11.0339C26.3365 10.9515 26.2145 10.7839 26.1245 10.7752C24.3712 11.0657 22.737 11.784 21.0317 12.2536C20.8327 12.2984 20.5901 12.5788 20.4245 12.6294C20.3083 12.6641 20.4086 12.3924 20.4245 12.3505C20.5175 12.1294 20.7804 11.9791 20.8284 11.7551H19.5617C19.7564 11.5368 19.9917 11.3345 20.0193 11.0209C19.3307 11.0513 18.1672 12.0932 17.8201 11.0556C17.7925 10.9732 17.7808 10.7868 17.7591 10.7492C17.7518 10.7362 17.5877 10.6249 17.5383 10.5657C17.3596 10.3547 17.2172 10.0425 17.239 9.76072C17.0182 9.79974 17.1403 10.0035 17.1359 10.1278C17.133 10.2246 17.0604 10.4024 16.9471 10.3865C16.8657 10.3749 16.0508 9.72893 16 9.57429L15.9012 9.30549C15.8053 9.54973 15.7981 9.86911 15.6485 10.0859C15.387 10.4674 15.1125 10.2174 15.1648 9.81419C15.1923 9.60175 15.419 9.36619 15.1081 9.23612L14.2467 10.6336C14.0434 10.4183 13.5945 9.69135 13.3301 9.6032C13.0091 9.49481 12.4121 9.68557 12.0649 9.68991C12.0867 9.97316 12.4426 9.88934 12.5908 10.0237C12.9336 10.3359 12.4688 11.2724 12.5574 11.6842C12.3685 11.4212 12.2 11.1495 11.9938 10.8981C11.9023 10.7868 11.4781 10.3012 11.3764 10.2839C11.221 10.2593 10.7126 10.5194 10.6574 10.6524C10.6327 10.7131 10.6952 10.7102 10.7271 10.7203C10.9261 10.7882 11.3314 10.7478 11.388 11.0093C11.4418 11.2579 11.1062 11.7912 11.0772 12.0687C10.7315 11.8345 10.2536 12.1077 9.93256 11.7883L10.1258 10.742C10.0618 10.716 10.0313 10.7088 9.96306 10.729C9.92965 10.7391 9.50114 11.0065 9.46192 11.0383C9.41108 11.0787 8.98983 11.9198 8.94916 12.0325C8.73999 12.6135 8.94626 12.9358 9.52874 13.0817C9.57668 13.1352 9.03922 13.7248 8.96659 13.8C8.83296 13.9387 8.31293 14.4532 8.18075 14.524C7.8728 14.6902 7.61134 14.5211 7.3121 14.4474C7.31791 14.5804 7.30339 14.7162 7.3121 14.8492C7.32373 15.0212 7.40797 15.644 7.47189 15.7755C7.54452 15.9273 7.99772 16.2987 8.19092 16.3189C7.93526 16.8074 7.76967 17.4519 7.46753 17.9086C7.33099 18.1153 7.12617 18.3118 6.89231 18.3855C6.80951 18.4115 6.67878 18.3711 6.64392 18.4708C7.01578 18.6211 7.40507 18.7959 7.81905 18.7468C8.22142 18.7006 8.47853 18.2135 8.73854 17.9462C8.79664 18.2135 8.69641 18.5026 8.59764 18.7497C8.5497 18.8668 8.28533 19.387 8.21125 19.4492C8.08778 19.5547 7.63603 19.3018 7.45881 19.348C7.39345 19.559 7.29177 19.7526 7.21042 19.9579C7.19445 19.9983 7.23657 20.0243 7.1407 20.0099C6.85454 19.3769 6.35921 18.8682 5.90891 18.3479C4.99088 17.2886 3.53394 16.0877 2.81927 14.9474C2.65223 14.6801 2.7205 14.6093 2.74229 14.3072L3.05895 14.4474C3.08945 13.9922 3.09381 13.1655 3.61384 12.9878C3.85206 12.9054 4.12079 12.917 4.36046 12.8375C4.39387 12.878 4.20939 13.1005 4.18325 13.1684C3.85496 14.0124 4.97781 14.6772 5.55739 15.0775C5.56029 14.6801 4.84708 14.5283 5.00105 14.0861C5.01122 14.0572 5.39034 13.7942 5.47023 13.7133C5.71427 13.4647 5.90455 13.1179 6.08613 12.8216C6.56257 12.7147 7.1407 12.5962 7.40071 12.1351C7.56631 11.8447 7.4806 11.1929 7.3673 10.8793C7.25836 10.5758 7.1407 10.5772 6.98527 10.385C6.87197 10.2463 6.79208 9.97172 6.61196 9.86333C6.60179 10.1422 6.62649 10.8721 6.43765 11.0715C6.08032 11.4501 5.3976 11.2203 4.94585 11.2218L4.88775 11.1741C4.83255 10.9906 5.43682 10.8229 5.45425 10.5455C5.46733 10.3402 5.10564 9.89223 5.01122 9.68846C4.69456 10.1076 4.25152 10.4212 3.80848 10.6986C3.5107 10.4631 3.20421 10.1336 2.78877 10.122C2.66385 10.1191 2.29344 10.1827 2.16852 10.2217C1.81409 10.333 1.44223 10.7969 1.06892 10.8099C0.744991 10.8215 0.341174 10.4183 0.155243 10.1798C-0.0946003 10.5165 0.256924 10.8778 0.415255 11.1799C0.450117 11.2449 0.444307 11.336 0.489337 11.3851C0.717392 11.6351 1.61363 11.4574 1.93175 11.6828C1.94918 11.7637 1.92013 11.7392 1.88672 11.7608C1.69062 11.8866 1.27664 12.0846 1.15607 12.2927C0.951257 12.6467 1.71677 13.5514 1.64269 14.0702C1.59039 14.4359 1.35943 14.3809 1.4553 14.868C1.62671 15.7481 2.77279 16.553 3.41047 17.1571C3.97553 17.6933 5.55884 19.0561 5.76656 19.7122C5.77237 19.7295 5.77673 19.77 5.74913 19.7642C4.48538 18.8046 2.73938 19.0893 1.39429 18.2959L0.769685 17.7699C0.90768 18.8769 2.17142 19.1746 2.91514 19.7989C2.68564 19.7657 2.44741 19.8365 2.22807 19.8365C1.91432 19.8365 1.45675 19.8003 1.14155 19.7599C0.797284 19.7151 0.486432 19.6211 0.169769 19.4853C0.492242 20.2975 1.31585 20.5547 2.12349 20.6385C2.36462 20.6646 2.65368 20.6487 2.89626 20.6747C3.17951 20.705 4.6931 20.851 4.79769 21.0591C4.92697 21.3149 4.62483 21.6097 4.54058 21.8192C4.50281 21.9146 4.42147 22.2383 4.39968 22.3453C4.35901 22.5577 4.4084 22.7861 4.48103 22.9841C4.62047 23.367 4.82674 23.4248 5.06206 23.7009C5.35257 24.0419 5.48476 24.4249 5.48331 24.8743C5.46007 24.9061 5.08675 24.2703 5.04027 24.2125C4.39678 23.4118 3.02118 22.8583 2.01309 23.0852C1.47564 23.2066 0.86265 23.6156 0.349889 23.2095L0.00126995 22.7716C-0.0292342 23.2471 0.4966 23.763 0.845219 24.0491C1.16333 24.3122 1.58894 24.4075 1.97097 24.5564C1.98695 24.6518 1.83152 24.6474 1.74872 24.7024C1.05439 25.1533 2.28182 26.4452 1.09216 26.5681L1.63833 27.006C2.26729 26.9496 2.77134 26.5305 3.18532 26.0941L3.06767 25.1012C3.43662 24.7399 3.78815 25.2761 4.0467 25.5189C4.21811 25.6807 4.32705 25.6909 4.47667 25.9322C5.1434 27.0074 4.5798 28.3095 4.68148 29.4729C4.74394 30.1897 5.61113 30.577 6.23574 30.7273C6.39698 30.7663 6.84292 30.8631 6.98382 30.8545C7.04773 30.8501 7.32954 30.723 7.41378 30.6868C8.08342 30.3992 8.69351 29.9888 9.32538 29.6318C9.39801 29.9772 8.93754 30.2591 8.87508 30.5307C8.76614 31.0077 8.95352 32.0063 9.0552 32.5063C9.27599 33.596 9.71177 34.7507 9.6769 35.8764C9.674 35.953 9.6464 36.2189 9.62606 36.2811C9.50114 36.6857 8.78357 36.336 8.62524 36.6756C9.66819 38.4026 10.8506 40.0544 11.7468 41.8652L12.0693 42.6977C11.8311 42.8292 11.6757 42.8234 11.7236 43.1471C11.786 43.5604 12.2029 44.1342 12.4542 44.468V43.6457C12.4542 43.5778 12.6823 43.4231 12.7709 43.4535C12.7709 43.7179 12.8305 44.007 12.9409 44.2469C13.1951 44.8018 13.657 44.6154 14.145 44.7281C14.4849 44.8076 14.543 44.9825 14.9701 44.9232C15.018 44.916 15.0311 44.9435 15.0224 44.8712C14.758 44.3914 14.6447 43.5835 14.1944 43.2454C14.1073 43.1803 13.8589 43.0893 13.8444 43.0691C13.8139 43.0257 13.657 42.4433 13.5974 42.3002C12.8973 40.6325 10.9944 38.998 11.375 37.0441C11.4621 36.5932 11.5536 36.5643 12.0156 36.5268C12.6213 36.4776 13.2473 36.5889 13.856 36.4271C14.27 36.9863 15.1168 37.5601 14.9803 38.3549C14.9425 38.5746 14.6912 38.8087 14.6375 38.9937C14.6229 39.0414 14.6418 39.0587 14.6883 39.0443C14.8684 38.9922 15.509 38.4402 15.5628 38.2696C15.6993 37.8303 15.403 37.5731 15.3042 37.1916C15.4262 37.2306 15.5235 37.3101 15.647 37.3577C16.09 37.5268 16.629 37.589 17.0981 37.6106C17.1127 37.2624 16.8338 37.3332 16.6159 37.2681C16.3951 37.2031 16.1743 36.9415 15.9433 36.8693C15.9056 36.5268 15.9898 36.1785 16.1481 35.875C16.6536 36.112 17.1998 35.9386 17.7169 35.9632C18.6931 36.0094 20.3447 37.1843 21.0753 37.8361C21.193 37.9401 21.5924 38.3968 21.6738 38.433C21.8873 38.5254 21.8118 37.998 22.095 38.1511L21.9527 38.7451C21.9222 39.5168 22.5932 39.6917 23.1336 40.0241C23.1772 39.7249 22.7298 39.6108 22.7705 39.316C22.8198 38.9576 23.2455 39.0211 23.3805 38.7292C23.4808 38.9677 23.613 39.1801 23.8236 39.3376C24.1243 39.5631 24.2564 39.4619 24.6138 39.4619C24.7169 39.4619 24.807 39.5038 24.9275 39.4995C25.0161 39.4952 25.3517 39.4272 25.4054 39.3781C25.7119 39.0992 25.2486 38.7552 25.0525 38.5702C24.7009 38.2393 24.3131 37.985 24.1025 37.521C23.8367 37.5153 23.626 37.4791 23.3718 37.4083C21.9919 37.021 20.8298 36.4285 19.7738 35.4573C19.5327 35.2348 19.4382 35.2261 19.569 34.9024C19.7869 34.359 20.2822 33.924 20.1674 33.2578L20.2197 33.2058L21.652 33.1364L21.9919 33.7954C22.1371 33.807 22.1618 33.5613 22.2882 33.5844C22.4247 33.6119 22.4393 33.7882 22.4858 33.898L22.5918 33.8835C22.7632 33.5078 22.6906 32.8026 22.3405 32.554C22.0848 32.3733 21.7391 32.343 21.4631 32.2014C21.6404 32.1898 22.3783 31.3979 22.3783 31.327V30.7851C22.0994 31.025 21.8655 31.4875 21.4515 31.4817C20.32 31.4672 19.6038 30.2417 18.5798 29.996C18.2776 29.9238 17.746 29.9556 17.4017 29.9426C16.5984 29.9151 15.785 29.9137 14.9904 29.8212C16.4299 28.7445 18.2384 28.3167 19.7375 27.334C19.9002 27.2271 20.3156 26.9568 20.41 26.8123C20.4652 26.7271 20.6235 26.2545 20.7107 26.2342C21.9062 27.1534 23.4561 26.2863 24.7445 26.6288C25.0234 26.7025 25.4505 26.9265 25.5972 27.1808C25.6538 27.2806 25.8833 27.98 25.9182 28.1216C26.001 28.4598 26.0184 28.8616 25.9647 29.2026C25.6044 29.2691 25.2645 29.3587 24.958 29.5668L24.7053 30.5336C25.2021 30.6247 25.0539 31.2736 25.494 31.4123C25.5768 31.4268 25.5376 31.3747 25.5478 31.327C25.6117 31.0423 25.6553 30.499 26.0722 30.7331C26.4353 30.9368 25.9414 31.4947 25.9778 31.8386C26.0155 32.2115 26.4411 32.7867 26.6605 33.0887C26.7418 33.106 27.2255 32.5092 27.256 32.3921C27.2909 32.2563 27.3475 31.8907 27.3693 31.7346C27.4667 31.0236 27.2764 30.5279 27.2357 29.8559C27.1703 28.7647 27.4725 27.6866 27.0425 26.6187C26.6503 25.6417 26.1041 25.5594 25.2776 25.0853C24.9188 24.8787 24.5789 24.6301 24.2114 24.448C24.4395 23.737 24.3407 22.9783 24.316 22.2456L24.2114 22.2282C24.6312 21.6444 23.9572 21.0706 23.8221 20.5143C23.8802 20.39 23.9964 20.3206 24.0778 20.2064C24.3756 19.7917 24.4308 19.2396 24.4932 18.7483C24.9508 18.8104 25.2849 18.5445 25.6248 18.2916C25.664 18.2627 25.6771 18.2063 25.7236 18.1702C25.8122 18.1023 26.1506 17.8494 26.2261 17.8262C26.4891 17.7467 26.5021 18.2728 26.4266 18.4303C26.6227 18.4766 26.752 18.1702 26.8667 18.1832C26.9466 18.1919 26.9394 18.267 26.98 18.2916C27.1965 18.426 27.5117 18.5474 27.7601 18.6095C27.8342 21.3539 27.5945 24.1546 27.9794 26.8759C28.36 29.5596 29.3042 32.1392 30.5592 34.5267L31.4917 36.1698H26.5138C26.4222 36.2507 26.4658 36.4039 26.4644 36.5167L26.9336 36.6265H61.4527C61.7359 36.5904 62.0424 36.5051 61.8376 36.1698H56.8233C58.5504 33.3907 59.6776 30.2417 60.0553 26.9814C60.1482 26.1779 60.1729 25.4091 60.1991 24.6055C60.202 24.5116 60.2441 24.4234 60.2368 24.3281V18.6095C60.4881 18.5474 60.8019 18.426 61.0183 18.2916C61.0605 18.2656 61.0532 18.1919 61.1316 18.1832C61.2449 18.1716 61.3757 18.478 61.5718 18.4303C61.4962 18.2872 61.5151 17.7641 61.7504 17.8161C61.8129 17.8306 62.1906 18.108 62.2734 18.1702C62.3198 18.2063 62.3344 18.2612 62.3721 18.2901C62.7135 18.5416 63.0461 18.8089 63.5037 18.7468C63.5676 19.2382 63.6214 19.7902 63.9191 20.205C64.0005 20.3192 64.1167 20.3885 64.1748 20.5128C64.06 21.0143 63.5081 21.5042 63.6824 22.049C63.7114 22.1386 63.7884 22.1907 63.7855 22.2788C63.7187 22.2514 63.6911 22.2499 63.6795 22.3308C63.6635 22.4378 63.649 22.6358 63.6431 22.7499C63.6126 23.3034 63.6243 23.9162 63.7855 24.4466C63.418 24.6287 63.0781 24.8772 62.7193 25.0839C61.8928 25.5579 61.3466 25.6403 60.9544 26.6172C60.5259 27.6852 60.8266 28.7662 60.7612 29.8544C60.7322 30.3458 60.5724 30.8574 60.584 31.3574C60.5913 31.6768 60.7249 32.4051 60.9007 32.6508C60.953 32.7231 61.2783 33.0988 61.3364 33.0873C61.5558 32.7852 61.9814 32.21 62.0192 31.8372C62.0497 31.5308 61.6851 31.0539 61.8144 30.8313C61.8855 30.7085 62.1543 30.6232 62.2646 30.7186C62.3344 30.7793 62.423 31.2129 62.4477 31.3256C62.4578 31.3733 62.4186 31.4253 62.5014 31.4109C62.943 31.2707 62.7876 30.6247 63.2902 30.5322L63.0374 29.5654C62.7309 29.3573 62.391 29.2677 62.0308 29.2012C61.977 28.8601 61.993 28.4569 62.0773 28.1202C62.1121 27.9786 62.3416 27.2791 62.3983 27.1794C63.02 26.0912 65.2076 26.7964 66.2273 26.6476C66.618 26.5912 66.9594 26.451 67.2848 26.2328C67.3879 26.2559 67.5244 26.7155 67.5854 26.8094C67.6784 26.9539 68.0953 27.2242 68.258 27.3311C69.7571 28.3139 71.567 28.7416 73.005 29.8183C72.2105 29.9093 71.397 29.9108 70.5937 29.9397C70.2495 29.9512 69.7178 29.9209 69.4157 29.9931C68.3916 30.2374 67.6741 31.4643 66.544 31.4788C66.1837 31.4831 65.9382 31.1175 65.716 30.8761C65.684 30.8415 65.6855 30.801 65.6172 30.8169V31.3242C65.6172 31.395 66.3537 32.1869 66.5323 32.1985C66.2578 32.3387 65.9106 32.3705 65.655 32.5511C65.3049 32.7982 65.2323 33.5049 65.4037 33.8807C65.5664 34.0006 65.5373 33.583 65.7073 33.5801C65.8322 33.5555 65.8583 33.8026 66.0036 33.7911L66.3435 33.1321L67.8004 33.2115C67.8629 33.2549 67.8251 33.5627 67.8367 33.6653C67.9021 34.2145 68.441 34.6509 68.5035 35.2015C67.7089 35.888 66.8359 36.6265 65.8365 37.0022C65.4778 37.1366 64.9897 37.3014 64.6222 37.404C64.4479 37.4531 63.986 37.4994 63.893 37.5543C63.8305 37.5904 63.54 38.0384 63.4354 38.1483C63.0549 38.5442 62.5087 38.8376 62.2734 39.3709C62.3155 39.4258 62.3794 39.4345 62.4419 39.4489C62.6438 39.4966 63.3396 39.6397 63.5051 39.6194C63.9845 39.5631 64.458 39.1714 64.612 38.7234C64.7515 39.0211 65.1669 38.9388 65.2206 39.3102C65.2541 39.5371 65.0405 39.6238 64.9301 39.7755C64.9069 39.8088 64.7733 40.0183 64.8924 39.9822C65.0289 39.9417 65.5402 39.6512 65.6608 39.5573C65.8976 39.3723 66.0646 39.0399 66.0385 38.7393L65.8961 38.1454C66.175 37.9965 66.1096 38.4893 66.2956 38.4387C66.3566 38.4228 66.8141 37.9214 66.9173 37.8303C67.6479 37.1785 69.2995 36.0036 70.2756 35.9574C70.7927 35.9328 71.3389 36.1062 71.8444 35.8692C72.0027 36.1727 72.0855 36.521 72.0492 36.8635C71.8183 36.9343 71.5975 37.1959 71.3767 37.2624C71.1573 37.3274 70.8799 37.2566 70.8944 37.6049C71.3651 37.5832 71.904 37.521 72.3456 37.352C72.469 37.3043 72.5663 37.2248 72.6884 37.1858C72.5925 37.563 72.2962 37.8347 72.4298 38.2639C72.4835 38.4344 73.1241 38.9865 73.3043 39.0385C73.3522 39.0529 73.3696 39.0341 73.3551 38.9879C73.3013 38.8029 73.0501 38.5688 73.0123 38.3491C72.8743 37.5499 73.7255 36.9849 74.1366 36.4213C74.3632 36.4386 74.5869 36.5065 74.8149 36.521C75.2449 36.5485 76.0482 36.4386 76.4171 36.6063C76.5508 36.667 76.59 36.8953 76.6176 37.0369C77.0083 39.0428 74.9762 40.7366 74.3138 42.4924C74.2688 42.6124 74.1947 42.9954 74.1468 43.0618C74.1322 43.0806 73.8824 43.1731 73.7952 43.2382C73.3406 43.5807 73.2374 44.3827 72.9673 44.864C72.96 44.9362 72.9716 44.9102 73.0195 44.916C73.4466 44.9767 73.5047 44.8004 73.8446 44.7209C74.3327 44.6082 74.7946 44.7946 75.0488 44.2397C75.1578 43.9998 75.2188 43.7107 75.2188 43.4463C75.3074 43.4159 75.5354 43.5705 75.5354 43.6385V44.4608C75.7867 44.1269 76.2036 43.5532 76.2661 43.1399C76.3155 42.8176 76.1586 42.8219 75.9204 42.6904C76.1847 41.91 76.5667 41.1687 76.9851 40.4605C77.6867 39.2726 78.628 38.0457 79.2584 36.8433C79.299 36.7652 79.3586 36.6872 79.331 36.5918C79.0855 36.4083 78.474 36.6265 78.3665 36.2739C78.2881 36.0181 78.3244 35.4834 78.352 35.2044C78.4348 34.3402 78.7238 33.5165 78.904 32.6739C79.0202 32.1306 79.2366 31.0409 79.1189 30.5235C79.0565 30.2504 78.596 29.9686 78.6686 29.6246C79.299 29.983 79.9106 30.392 80.5802 30.6796C80.6645 30.7157 80.9463 30.8429 81.0102 30.8472C81.1685 30.8574 81.6653 30.7446 81.8425 30.6984C82.4468 30.5423 83.2515 30.1579 83.3125 29.4657C83.4099 28.3514 82.8898 27.1014 83.436 26.0536C83.5769 25.7834 84.0025 25.3773 84.2465 25.1807C84.4804 24.9914 84.6257 24.8975 84.9292 25.0434L84.7971 26.0305C85.182 26.5117 85.7238 26.9221 86.36 26.9973C86.4123 26.9944 86.6956 26.7242 86.761 26.6664C86.8045 26.6273 86.9658 26.5796 86.8147 26.5464C85.7732 26.3181 86.8438 25.2877 86.3281 24.7732C86.238 24.6836 86.0608 24.6648 85.9882 24.5521C86.2656 24.4307 86.6709 24.3483 86.928 24.2096C87.1561 24.0867 87.6819 23.5376 87.8184 23.3107C87.9114 23.1575 88.0087 22.9884 87.9927 22.802L88 22.8063ZM18.9313 13.9907C18.7207 14.3087 18.4795 14.6237 19.001 14.7769C18.6931 14.9446 18.6553 14.9879 18.5057 14.6815C18.4926 14.6541 18.4389 14.6541 18.4374 14.6338C18.4287 14.4373 18.6698 13.9604 18.9298 13.9907H18.9313ZM5.63873 22.5028C5.47895 22.234 5.35984 21.9074 5.24508 21.6169C5.54286 21.984 6.00042 22.3597 5.98299 22.8757C5.92053 22.9479 5.66197 22.5418 5.63873 22.5014V22.5028ZM12.3395 25.5059C12.3061 25.6316 12.3148 25.7602 12.2712 25.8932C12.1957 26.1287 11.9618 26.3961 11.8863 26.6461C11.4723 26.7502 11.1121 26.9207 10.7504 27.1433C9.35007 28.0104 8.04566 29.9801 6.17764 29.207C5.91472 28.5624 5.90746 27.9627 6.04255 27.2892C6.49866 25.016 8.57875 22.9089 7.39054 20.4955C7.59245 20.5937 8.02968 20.7527 8.24321 20.6963C8.48434 20.6328 8.89251 20.0706 9.06827 19.8755C9.08861 19.8524 9.06682 19.8076 9.14816 19.8307C9.08716 20.4767 9.39801 21.3062 8.80971 21.7817C8.54825 21.7181 8.27952 21.7744 8.02242 21.825C8.23013 22.1776 8.59473 22.4118 9.00727 22.4551C8.8838 22.8916 8.25047 23.6344 8.4364 24.0911C8.55261 24.3772 9.0828 24.6966 9.36024 24.8165C9.52293 24.8873 10.2303 25.0882 10.3015 25.1576C10.3654 25.2212 10.3524 25.4466 10.3277 25.5348C10.2608 25.7819 9.85848 25.9857 9.92239 26.3036C10.5586 26.347 11.0031 25.9568 11.1905 25.3773C11.282 25.0969 11.2893 24.7949 11.4302 24.5304C11.6742 24.0723 12.1724 23.8945 12.6663 23.9957C12.6939 24.5188 12.4731 25.0073 12.3395 25.503V25.5059ZM15.0965 36.469C15.1037 36.4184 15.1226 36.3606 15.1662 36.4169C15.1546 36.5456 15.1822 36.6944 15.1662 36.8201C15.1589 36.8707 15.1401 36.9285 15.0965 36.8722C15.1081 36.7435 15.0805 36.5947 15.0965 36.469ZM17.6487 18.9925C17.4845 18.9795 16.6304 18.8133 16.5215 18.7497C16.1235 18.5141 16.1031 17.5401 16.1888 17.1398C16.398 17.2409 16.6072 17.3464 16.8236 17.436C16.9906 17.504 17.4961 17.6499 17.5935 17.7193C17.6385 17.7511 18.2341 18.4433 18.2936 18.5271C18.6321 19.0026 18.0016 19.0214 17.6501 18.9925H17.6487ZM28.4312 12.3447C29.5918 12.6756 30.7277 13.1034 31.8868 13.4387C34.1093 14.0803 37.9151 14.3752 39.2267 11.9718C39.2906 11.8533 39.3807 11.492 39.4969 11.4704L48.5044 11.4342C48.5349 11.4342 48.5552 11.4458 48.5741 11.4689C48.6206 11.5238 48.7295 11.8634 48.7963 11.982C50.0485 14.209 53.5317 14.1295 55.6786 13.5644C56.9802 13.2219 58.2686 12.7002 59.5701 12.3432V15.2119L58.9019 15.037V13.2884C57.7384 13.563 56.6185 14.0529 55.4477 14.3145C52.8534 14.894 49.527 14.7133 48.1122 12.1322L39.9254 12.1395C38.4699 14.6888 35.2191 14.8969 32.6117 14.3275C31.4177 14.0673 30.2876 13.5688 29.0993 13.2884V15.037L28.4312 15.2119V12.3432V12.3447ZM47.4687 29.7186C47.4788 30.9311 45.9217 32.2187 44.7756 32.2187H40.5006V31.3791H41.0991V22.5967H40.5006V21.7571H44.5664C45.9507 21.864 47.3597 22.828 47.4687 24.2919C47.5994 26.042 47.367 27.9497 47.4687 29.7171V29.7186ZM37.1771 19.1659C35.8451 19.1457 34.5131 19.1529 33.1825 19.1327L43.7384 18.9231L43.4566 17.3493C42.9744 17.3291 42.4006 17.4519 42.0186 17.0834C41.4361 16.5198 41.808 15.0818 41.6903 14.3304C41.6395 14.1439 41.4419 14.1165 41.2879 14.0644C41.2327 14.0457 41.1877 14.0948 41.2051 13.9907C41.4085 14.011 41.6598 13.9633 41.8559 13.9907C42.9235 14.141 42.5052 15.816 42.5764 16.5632C42.6171 17.001 43.0688 17.199 43.4566 17.2438L43.843 13.641L44.2498 17.2453C44.7175 17.1643 45.0719 16.962 45.1111 16.4577C45.1547 15.9128 45.0211 15.1194 45.1257 14.6179C45.1721 14.3968 45.3421 14.1887 45.544 14.089C45.5774 14.0731 45.7837 13.9907 45.7967 13.9907H46.4301C46.4301 13.9907 46.4853 14.0384 46.4824 14.0601C46.2616 14.0543 46.0059 14.1656 45.9623 14.4012C45.8534 14.9995 46.0263 15.8622 45.9536 16.4923C45.9289 16.7149 45.7459 17.0256 45.5643 17.1542C45.1707 17.4346 44.687 17.3262 44.2323 17.3522L43.9128 18.9231L54.5035 19.1327C53.173 19.1543 51.8395 19.1457 50.5089 19.1659C46.0524 19.2338 41.6337 19.2338 37.1771 19.1659ZM32.2674 36.1727C30.5447 33.4312 29.2141 30.4036 28.6883 27.1881C28.2046 24.2226 28.5285 21.1328 28.4297 18.1341L28.6069 17.7525C28.5546 17.6687 28.5067 17.7222 28.4312 17.7337L28.466 16.5256L29.0819 16.2987L29.0979 24.5058C29.2083 27.73 30.1307 30.8458 31.6138 33.6899L33.0751 36.1727H32.266H32.2674ZM32.3706 30.0683C32.4795 28.0682 32.2311 25.925 32.3706 23.9422C32.449 22.8193 33.4963 21.8973 34.5393 21.6198C35.6026 21.3366 36.8314 21.4955 37.6855 22.2123C37.7088 22.0577 37.6303 21.8438 37.7393 21.7224H38.6718V24.3469H37.687C37.7422 23.0462 36.5801 22.2441 35.3454 22.3511C34.7978 22.3988 34.2792 22.8207 34.2371 23.3829V30.6276C34.4172 31.6363 35.482 31.7707 36.3303 31.5164C37.1466 31.2707 37.7451 30.4903 37.687 29.629H38.6718V32.2187H37.687C37.6812 32.1089 37.6957 31.9962 37.687 31.8863C37.6841 31.8487 37.7059 31.7693 37.6347 31.7996C37.5795 31.8227 37.4037 31.986 37.3108 32.0381C35.4646 33.0714 32.7293 32.3112 32.3735 30.0697L32.3706 30.0683ZM54.03 34.1798C47.9233 34.3417 41.8327 34.2665 35.7333 34.1769C34.8835 34.1639 34.0236 34.2246 33.1811 34.1263C33.8536 34.0859 34.532 34.1191 35.206 34.1104C37.7219 34.0772 40.2508 33.9862 42.7681 33.9674C45.1968 33.95 47.627 34.0411 50.0514 34.0758C51.5228 34.096 52.9972 34.0945 54.4687 34.109L54.03 34.1798ZM53.4126 22.5967V31.3791H54.0111V32.2187H50.9142V31.4311L50.9665 31.3791H51.5475V22.5967H50.2809V23.0867H49.296V21.7571H55.6293V23.0867H54.6793V22.5967H53.4126ZM59.2026 28.2662C58.6957 31.0814 57.6149 33.7939 56.0345 36.1727H55.2429C56.6664 34.0237 57.737 31.658 58.3223 29.1405C58.61 27.9049 58.7741 26.6461 58.8685 25.3801L58.9208 16.2987L59.5367 16.5256L59.5716 17.7337C59.496 17.7222 59.4481 17.6673 59.3958 17.7525L59.573 18.1341C59.4946 21.5143 59.804 24.9264 59.2026 28.2662ZM69.4404 14.8289C69.3285 14.9778 69.1237 14.855 69.0003 14.7769C69.5217 14.6223 69.2806 14.3072 69.07 13.9907C69.4026 14.0153 69.5072 14.3723 69.5551 14.6469C69.4651 14.6642 69.4883 14.7654 69.4389 14.8289H69.4404ZM71.4813 18.7497C71.3825 18.8104 70.5109 18.9795 70.3541 18.9925C70.0011 19.0214 69.3707 19.0026 69.7106 18.5271C69.7701 18.4433 70.3657 17.7511 70.4107 17.7193C70.5356 17.6311 71.1501 17.4563 71.3563 17.3652C71.5132 17.2973 71.657 17.2034 71.8154 17.1398C71.8996 17.543 71.8807 18.5026 71.4827 18.7497H71.4813ZM72.9062 36.8201C72.899 36.8707 72.8801 36.9285 72.8365 36.8722C72.8481 36.7435 72.8205 36.5947 72.8365 36.469C72.8438 36.4184 72.8627 36.3606 72.9062 36.4169C72.8946 36.5456 72.9222 36.6944 72.9062 36.8201ZM81.8454 29.1607C81.7917 29.2691 81.6798 29.2706 81.568 29.3052C79.4952 29.9455 78.0106 26.9814 76.115 26.6476C76.0351 26.3889 75.794 26.1143 75.7214 25.8672C75.685 25.7443 75.6923 25.6244 75.6618 25.5073C75.5282 25.0116 75.3074 24.5232 75.335 24C75.8288 23.8988 76.3271 24.0766 76.5711 24.5347C76.7178 24.8093 76.728 25.1388 76.8297 25.4322C77.0272 25.9958 77.4586 26.3484 78.0774 26.308C78.1413 25.99 77.7375 25.7862 77.6722 25.5391C77.6489 25.451 77.6344 25.2241 77.6983 25.1619C77.7695 25.0926 78.4769 24.8917 78.6396 24.8209C78.917 24.7009 79.4472 24.3815 79.5634 24.0954C79.7479 23.6387 79.1146 22.8959 78.9926 22.4595C79.4051 22.4175 79.7697 22.182 79.9774 21.8294C79.7203 21.7788 79.4516 21.721 79.1901 21.786C78.6047 21.3149 78.9112 20.494 78.8517 19.8524L78.9214 19.835C78.9214 19.835 78.9315 19.8928 78.9562 19.9217C79.1189 20.1067 79.5344 20.6429 79.7566 20.7021C79.9716 20.7585 80.541 20.5995 80.6805 20.3958C80.3652 21.036 80.204 21.6877 80.2578 22.4089C80.403 24.3974 82.8128 27.2358 81.8454 29.1636V29.1607ZM82.0183 22.8771C81.9805 22.3251 82.4962 21.9551 82.7925 21.5476C82.6836 21.8279 82.5586 22.1834 82.4119 22.4465C82.3858 22.4927 82.0836 22.9537 82.0183 22.8771Z" fill="#E31E24"/>
<path d="M5.98299 22.8771C5.92053 22.9494 5.66197 22.5433 5.63873 22.5028C5.47895 22.234 5.35984 21.9074 5.24508 21.6169C5.54286 21.984 6.00042 22.3597 5.98299 22.8757V22.8771Z" fill="white"/>
<path d="M15.1662 36.4169C15.1546 36.5456 15.1822 36.6944 15.1662 36.8201C15.1589 36.8707 15.1401 36.9285 15.0965 36.8722C15.1081 36.7435 15.0805 36.5947 15.0965 36.469C15.1037 36.4184 15.1226 36.3606 15.1662 36.4169Z" fill="white"/>
<path d="M72.9062 36.4169C72.8946 36.5456 72.9222 36.6944 72.9062 36.8201C72.899 36.8707 72.8801 36.9285 72.8365 36.8722C72.8481 36.7435 72.8205 36.5947 72.8365 36.469C72.8438 36.4184 72.8627 36.3606 72.9062 36.4169Z" fill="white"/>
<path d="M42.0709 44.3553C40.611 44.1992 39.3647 43.8206 37.9615 43.5431C37.9296 43.5373 37.8279 43.4968 37.8264 43.5373C38.7387 44.2772 39.6407 45.0316 40.5951 45.7181C41.7063 46.5173 42.88 47.2254 44.0202 47.9798L44.1045 48L45.8098 46.8222C47.0924 45.9363 48.3533 44.9998 49.5807 44.0301L50.6324 43.624C47.842 44.3553 44.9513 44.6631 42.0694 44.3538L42.0709 44.3553ZM44.0711 47.1921C42.8044 46.4233 41.545 45.6184 40.3626 44.7238C40.1564 44.5677 39.9312 44.4131 39.7613 44.2209L41.3693 44.6327L44.0362 46.4132L46.2703 44.851C45.0254 44.9767 43.7704 45.0114 42.5284 44.8452L41.4506 44.64C41.7382 44.6458 42.0273 44.6313 42.3135 44.6385C43.6019 44.6718 45.0937 44.8553 46.3589 44.7946C46.8368 44.7715 47.3423 44.5952 47.8187 44.5345L44.0711 47.1921Z" fill="#E31E24"/>
<path d="M42.9991 31.3791V22.5967H44.4938C44.5621 22.5967 44.9238 22.7442 45.0051 22.7875C45.4046 23.0057 45.5745 23.3612 45.6036 23.802C45.7459 25.9105 45.4961 28.1823 45.5977 30.3067C45.6268 30.7533 44.9819 31.3776 44.5635 31.3776H42.9976L42.9991 31.3791Z" fill="#E31E24"/>
</svg>
